<svg width="60" height="16" viewBox="0 0 60 16" fill="none" xmlns="http://www.w3.org/2000/svg">
<path fill-rule="evenodd" clip-rule="evenodd" d="M0 15.6773H1.30896L3.70137 10.4993H9.97653L12.3719 15.6773H14.0279L7.01446 0.678711L0 15.6773ZM6.83699 3.71334L9.56375 9.6071H4.11416L6.83699 3.71334Z" fill="black"/>
<path fill-rule="evenodd" clip-rule="evenodd" d="M45.3564 15.6773H46.6664L49.0578 10.4993H55.333L57.7273 15.6773H59.3844L52.3709 0.678711L45.3564 15.6773ZM52.1934 3.71334L54.9202 9.6071H49.4716L52.1934 3.71334Z" fill="black"/>
<path fill-rule="evenodd" clip-rule="evenodd" d="M23.0855 9.42801C23.0855 9.42801 27.9076 9.42801 27.9076 5.14226C27.9076 2.26549 24.8661 1.10164 23.4434 1.04478C22.505 1.00654 19.693 1.03595 19.693 1.03595H19.1576H18.0859V15.6787H19.693V1.9282H22.907C24.5141 1.9282 26.3005 2.99988 26.3005 5.14226C26.3005 7.46407 24.8719 8.7142 22.7286 8.7142H20.4068L26.8408 15.6787H29.0067L23.0855 9.42801Z" fill="black"/>
<path fill-rule="evenodd" clip-rule="evenodd" d="M41.8352 1.92814V1.03491H34.8717H34.1569H33.2637V15.6776H34.1569H34.8717H41.8352V14.7854H34.8717V8.71415H41.4783V7.82092H34.8717V1.92814H41.8352Z" fill="black"/>
</svg>
