<svg width="22" height="22" viewBox="0 0 22 22" fill="none" xmlns="http://www.w3.org/2000/svg">
<path fill-rule="evenodd" clip-rule="evenodd" d="M22 11C22 4.92487 17.0751 0 11 0C4.92487 0 0 4.92487 0 11C0 17.0751 4.92487 22 11 22C17.0751 22 22 17.0751 22 11ZM1.375 11C1.375 5.68426 5.68426 1.375 11 1.375C16.3157 1.375 20.625 5.68426 20.625 11C20.625 16.3157 16.3157 20.625 11 20.625C5.68426 20.625 1.375 16.3157 1.375 11Z" fill="#E52124"/>
<path d="M14.6387 6.38892L15.6109 7.36119L7.36094 15.6112L6.38867 14.6389L14.6387 6.38892Z" fill="#E52124"/>
<path d="M15.8125 6.1875V14.4375H14.4375V7.5625H7.5625V6.1875H15.8125Z" fill="#E52124"/>
</svg>
