<svg width="32" height="32" viewBox="0 0 32 32" fill="none" xmlns="http://www.w3.org/2000/svg">
<path fill-rule="evenodd" clip-rule="evenodd" d="M32 16C32 7.16344 24.8366 0 16 0C7.16344 0 0 7.16344 0 16C0 24.8366 7.16344 32 16 32C24.8366 32 32 24.8366 32 16ZM2 16C2 8.26801 8.26801 2 16 2C23.732 2 30 8.26801 30 16C30 23.732 23.732 30 16 30C8.26801 30 2 23.732 2 16Z" fill="white"/>
<path d="M21.293 9.29289L22.7072 10.7071L10.7072 22.7071L9.29297 21.2929L21.293 9.29289Z" fill="white"/>
<path d="M23 9V21H21V11H11V9H23Z" fill="white"/>
</svg>
