<svg width="83" height="45" viewBox="0 0 83 45" fill="none" xmlns="http://www.w3.org/2000/svg">
<path fill-rule="evenodd" clip-rule="evenodd" d="M83 22.5C83 10.0736 72.9264 0 60.5 0H22.5C10.0736 0 0 10.0736 0 22.5C0 34.9264 10.0736 45 22.5 45H60.5C72.9264 45 83 34.9264 83 22.5ZM22.5 2H60.5C71.8218 2 81 11.1782 81 22.5C81 33.8218 71.8218 43 60.5 43H22.5C11.1782 43 2 33.8218 2 22.5C2 11.1782 11.1782 2 22.5 2ZM56.8688 21.5L52.0766 16.7071L53.4908 15.2929L59.9908 21.7929L60.6979 22.5L53.4908 29.7071L52.0766 28.2929L56.8688 23.5H22.5V21.5H56.8688Z" fill="white"/>
</svg>
