<svg width="107" height="53" viewBox="0 0 107 53" fill="none" xmlns="http://www.w3.org/2000/svg">
<rect x="18.8242" width="5.94444" height="34.3519" fill="white"/>
<rect x="8.91699" y="5.88867" width="5.94444" height="28.463" fill="white"/>
<rect x="27.7412" y="5.88867" width="5.94444" height="28.463" fill="white"/>
<rect y="27.4814" width="5.94444" height="21.5926" fill="white"/>
<path fill-rule="evenodd" clip-rule="evenodd" d="M11.1793 53.0001L11.1916 48.5631H22.7874V37.2964H8.91699L8.92935 53.0001H11.1793ZM11.1793 39.5209H20.4756V46.3026H11.1793V39.5209Z" fill="white"/>
<path fill-rule="evenodd" clip-rule="evenodd" d="M37.6484 34.3517H43.5929V17.6665H37.6608L37.6484 34.3517Z" fill="white"/>
<path fill-rule="evenodd" clip-rule="evenodd" d="M43.5807 49.0741L43.593 38.3046C42.5441 38.316 30.3397 38.2241 29.7227 38.3275V49.0741H43.5807ZM32.055 40.4424L41.3348 40.4539V46.9248H32.055V40.4424Z" fill="white"/>
<path fill-rule="evenodd" clip-rule="evenodd" d="M47.8859 39.6519H57.1329V49.0742H59.4446L59.4323 37.2964L45.5742 37.3089V49.0742H47.8859V39.6519Z" fill="white"/>
<path fill-rule="evenodd" clip-rule="evenodd" d="M95.4562 39.6519L107 39.6394L106.988 37.2964L93.1474 37.3089C93.0983 41.1805 93.172 45.1775 93.1351 49.0616L95.4439 49.0742V40.3536L95.4562 39.6519Z" fill="white"/>
<path fill-rule="evenodd" clip-rule="evenodd" d="M77.2773 40.2408H91.1477V38.2778H77.3019L77.2773 40.2408Z" fill="white"/>
<path fill-rule="evenodd" clip-rule="evenodd" d="M61.4258 40.2408H75.2962V38.2778H61.4381L61.4258 40.2408Z" fill="white"/>
<path fill-rule="evenodd" clip-rule="evenodd" d="M61.6377 42.2183L75.2801 42.194L75.2842 44.4165L61.6417 44.4407L61.6377 42.2183Z" fill="white"/>
<path fill-rule="evenodd" clip-rule="evenodd" d="M77.2773 44.1666H91.1477L91.1354 42.2036L77.2897 42.2143L77.2773 44.1666Z" fill="white"/>
<path fill-rule="evenodd" clip-rule="evenodd" d="M61.6387 46.7593L75.2811 46.735L75.2851 48.9575L61.6427 48.9817L61.6387 46.7593Z" fill="white"/>
<path fill-rule="evenodd" clip-rule="evenodd" d="M77.2773 49.0743H91.1477L91.1354 47.1113H77.2897L77.2773 49.0743Z" fill="white"/>
<path fill-rule="evenodd" clip-rule="evenodd" d="M25.7588 49.0742H27.7403L27.7297 37.2964H25.7588V49.0742Z" fill="white"/>
<path fill-rule="evenodd" clip-rule="evenodd" d="M18.8978 34.3519V0.0941813H24.6994V34.3519C24.7115 34.3397 24.7115 34.3032 24.7115 34.3154C24.7115 34.3275 24.7236 34.2789 24.7236 34.2789C24.7236 34.2668 24.7357 34.2425 24.7357 34.2303L24.7478 2.24516C24.7478 1.73476 24.8082 0.519516 24.7236 0.0820288C24.4456 -0.0273429 19.1396 -0.0273429 18.8736 0.0820288C18.7528 0.653193 18.8978 29.3451 18.8495 33.8414C18.8374 34.0237 18.8132 34.2182 18.8978 34.3519" fill="white"/>
<path fill-rule="evenodd" clip-rule="evenodd" d="M11.2315 52.9044H9.00272L8.97822 37.344H22.7185V48.5079C22.792 48.3173 22.8165 38.2138 22.743 37.2964L8.91699 37.3202L8.94148 52.9997H10.9989C11.3662 52.9997 11.1213 53.0116 11.2315 52.9044" fill="white"/>
<path fill-rule="evenodd" clip-rule="evenodd" d="M77.2773 44.0965C77.3508 44.167 77.363 44.1569 77.62 44.1469C77.7669 44.1469 77.926 44.1469 78.0728 44.1469C79.8963 44.1469 90.6658 44.2072 91.0941 44.1167C91.1553 43.865 91.1798 42.4156 91.0818 42.2143L77.4609 42.2042C77.1794 42.2042 77.3997 42.1942 77.3018 42.2546H91.0696V44.1066L77.2773 44.0965Z" fill="white"/>
<path fill-rule="evenodd" clip-rule="evenodd" d="M43.4955 49.0742C43.6304 48.9867 43.5691 48.8366 43.5691 48.4491V40.3228C43.5691 39.3977 43.6304 38.235 43.5568 37.3474C42.9068 37.2349 32.384 37.3474 30.1151 37.3224C29.833 37.3224 29.8208 37.2974 29.7227 37.4099C30.3359 37.2974 42.4653 37.3849 43.5078 37.3849L43.4955 49.0742Z" fill="white"/>
<path fill-rule="evenodd" clip-rule="evenodd" d="M75.2962 44.0968H61.4627V42.2036L61.4258 44.1173C61.807 44.2196 72.4311 44.1275 74.8904 44.148L75.2593 44.1173C75.2593 44.1071 75.2839 44.0968 75.2962 44.0968" fill="white"/>
</svg>
