<svg width="123" height="29" viewBox="0 0 123 29" fill="none" xmlns="http://www.w3.org/2000/svg">
<path fill-rule="evenodd" clip-rule="evenodd" d="M5.19002 5.53547C5.19002 3.07516 6.90407 1.4669 9.95116 1.4669C11.713 1.4669 13.3315 1.84548 14.9501 2.60168C16.1408 3.1226 16.8074 2.36543 17.1884 1.41945C14.9023 0.473473 12.5217 0 10.1412 0C5.19002 0 0.0478758 1.6557 0.000127953 7.42743C-0.0476199 15.2334 13.2838 16.2269 13.617 22.7558C13.7603 25.8774 11.522 27.5805 8.47488 27.5805C6.33305 27.5805 4.42801 27.1555 2.47619 26.1146C1.42866 25.5463 0.666649 26.2085 0.28564 27.108C2.42845 28.3377 5.95204 29 8.33261 29C14.2358 29 19.1402 26.6346 18.9969 20.7689C18.7114 12.6782 5.19002 11.7323 5.19002 5.53547" fill="white"/>
<path fill-rule="evenodd" clip-rule="evenodd" d="M103.429 12.9083C103.096 11.9647 102.62 11.0675 101.953 10.3595C101.287 9.60521 100.43 9.03827 99.3354 8.61427C98.2404 8.1893 97.0031 8 95.5272 8C92.5285 8 90.1485 8.99094 88.4826 10.9265C86.7689 12.9083 85.9126 15.5035 86.0071 18.713C86.0548 21.3081 86.6734 23.9033 88.3393 25.9799C90.1485 28.1974 92.9572 29 95.7181 29C98.4313 29 101.478 28.0564 103.048 26.6405C103.62 26.1218 103.334 25.4139 103.048 25.1773C101.335 26.4985 99.6209 27.1591 97.3363 27.1591C95.194 27.1591 93.6235 26.4048 92.7195 24.9889C91.8144 23.5257 91.2912 21.1662 91.2435 17.9577H103.762C103.81 17.9577 103.858 17.9104 103.858 17.863C103.953 17.3444 104 16.7774 104 16.1641C103.906 14.9375 103.762 13.8993 103.429 12.9083M99.2399 16.3061L91.1003 16.9194C91.1958 14.0403 91.7667 9.13292 95.5749 9.13292C99.1454 9.13292 99.2877 13.6163 99.2399 16.3061" fill="white"/>
<path fill-rule="evenodd" clip-rule="evenodd" d="M115.022 17.4306L121.847 9H119.495C119.264 9 119.034 9.04697 118.895 9.28086L114.33 16.4941L113.178 14.761C109.811 9.79657 110.088 9 108.151 9H104.231L111.471 19.6784L104 28.9986H106.398C106.675 28.9986 106.906 28.9056 107.044 28.7177L112.255 20.6619L114.054 23.2845C117.281 27.9681 116.866 29.0455 119.311 28.9986H123L115.022 17.4306Z" fill="white"/>
<path fill-rule="evenodd" clip-rule="evenodd" d="M50.8169 15.2846C50.8169 11.3396 49.349 9 45.5398 9C42.3279 9 40.1716 10.6514 38.4736 12.4868C37.8312 10.2843 36.3624 9 33.4717 9C30.7641 9 28.5618 10.2843 26.7718 12.2118V12.1658C26.7718 10.6514 26.5427 9.41309 25.0748 9.41309H22L22.1831 11.6607V26.7524L22 29H27.0019L26.8178 26.7524V13.2661C28.1946 12.0737 29.8926 11.5687 31.2694 11.5687C33.8849 11.5687 34.1601 14.3213 34.1601 16.3858V26.7064L33.976 28.954H38.9779L38.7948 26.7064V13.2661C39.9875 12.2118 41.6855 11.5687 43.2454 11.5687C45.999 11.5687 46.1822 14.5964 46.1822 16.3858V26.2943C46.1822 28.1748 46.6874 28.954 47.9262 28.954H51L50.8169 26.7064V15.2846Z" fill="white"/>
<path fill-rule="evenodd" clip-rule="evenodd" d="M83.7616 15.2701C83.7616 11.3801 82.2332 9 78.2707 9C75.4534 9 72.8277 10.2814 70.9651 12.2044C70.9651 10.6935 70.7267 9.45804 69.1993 9.45804H66L66.1915 11.7004V26.7576L66 29H71.2046L71.013 26.7576V13.2563C72.4935 12.1585 73.9261 11.5628 75.9313 11.5628C78.4622 11.5628 78.987 13.8511 78.987 16.3689V26.2546C78.987 27.9013 79.3691 28.9082 80.8016 28.9082H84L83.8094 26.6658L83.7616 15.2701Z" fill="white"/>
<path fill-rule="evenodd" clip-rule="evenodd" d="M58.5 6C59.864 6 61 4.8528 61 3.47653C61 2.1012 59.9096 1 58.5 1C57.136 1 56 2.14626 56 3.52253C56 4.8988 57.136 6 58.5 6" fill="white"/>
<path fill-rule="evenodd" clip-rule="evenodd" d="M60.8169 11.7168C60.8169 10.1715 60.5418 9 59.0732 9H56L56.1831 11.295V26.705L56 29H61L60.8169 26.705V11.7168Z" fill="white"/>
</svg>
