<svg width="33" height="75" viewBox="0 0 33 75" fill="none" xmlns="http://www.w3.org/2000/svg">
<path fill-rule="evenodd" clip-rule="evenodd" d="M21.1533 73.9938C22.5582 73.9341 23.8033 73.4741 24.6777 72.4663C23.9815 71.3971 22.9186 70.8177 21.651 70.4823C20.3833 70.1487 18.9047 70.0592 17.4507 70.0188C16.0008 69.9819 14.5612 70.01 13.4819 70.0135C12.372 70.0329 11.6777 70.0416 11.6777 70.0416C11.6777 70.0416 11.8108 70.1698 12.0627 70.3805C12.3146 70.5789 12.6792 70.8738 13.1317 71.1934C14.0471 71.8395 15.3394 72.5945 16.7647 73.1475C18.1921 73.7006 19.7464 74.0517 21.1533 73.9938" fill="white"/>
<path fill-rule="evenodd" clip-rule="evenodd" d="M23.1776 68.4326C23.9344 69.4177 24.99 70.0645 26.3018 69.9949C26.8354 68.6833 26.7442 67.4295 26.3813 66.2791C26.0223 65.1308 25.382 64.078 24.7358 63.1625C24.0838 62.245 23.4221 61.4608 22.9351 60.8996C22.6983 60.619 22.4946 60.3941 22.3471 60.2408C22.2132 60.0836 22.1298 60 22.1298 60C22.1298 60 22.0852 60.1393 22.0172 60.3941C21.9532 60.6468 21.8795 61.009 21.8116 61.4548C21.6699 62.3504 21.6078 63.5744 21.7922 64.8581C21.9765 66.1358 22.4209 67.4454 23.1776 68.4326" fill="white"/>
<path fill-rule="evenodd" clip-rule="evenodd" d="M6.3091 59.4883C5.31928 59.1816 4.67773 59 4.67773 59C4.67773 59 4.73883 59.1614 4.86307 59.4358C4.99545 59.7042 5.19708 60.0876 5.45167 60.5376C5.70828 60.9895 6.01786 61.5122 6.38242 62.061C6.56368 62.3354 6.75716 62.6159 6.96083 62.8964L7.12376 63.1143L7.32539 63.3786C7.46592 63.5542 7.60849 63.7297 7.74698 63.9032C8.9038 65.2693 10.3356 66.3145 11.7409 66.7524C13.1462 67.2003 14.5107 67.057 15.6777 66.1874C15.3498 64.8052 14.5657 63.8629 13.5046 63.0416C13.246 62.8318 12.9568 62.6441 12.6676 62.4464C12.3763 62.2507 12.0667 62.065 11.7531 61.8794C11.4394 61.6837 11.1156 61.496 10.7857 61.3104C10.472 61.1409 10.1665 60.9895 9.84678 60.8402C8.59016 60.253 7.29688 59.8011 6.3091 59.4883" fill="white"/>
<path fill-rule="evenodd" clip-rule="evenodd" d="M15.8977 61.5048C16.2636 62.7067 17.1127 63.6955 18.4034 64C19.3043 62.8752 19.5867 61.6469 19.6622 60.4856C19.7259 59.3243 19.5807 58.2239 19.4574 57.3001C19.4156 56.9083 19.2605 56.2484 19.1193 55.7307C18.9742 55.1988 18.8131 54.7196 18.6679 54.3197C18.5207 53.9157 18.3835 53.5888 18.2881 53.3614C18.2065 53.1299 18.1568 53 18.1568 53C18.1568 53 18.0613 53.1299 17.9162 53.3654C17.7591 53.603 17.5741 53.938 17.3554 54.3562C16.9298 55.1907 16.4127 56.3601 16.0548 57.6534C15.9633 57.9782 15.8857 58.3092 15.8221 58.6441C15.7604 58.9568 15.7127 59.2776 15.6849 59.6024C15.669 59.9252 15.6809 60.246 15.7087 60.5709C15.7405 60.8917 15.8141 61.2003 15.8977 61.5048" fill="white"/>
<path fill-rule="evenodd" clip-rule="evenodd" d="M5.11795 53.8662C5.34867 54.1377 5.61853 54.3738 5.89663 54.5981C6.16855 54.8224 6.44871 55.0231 6.7433 55.2041C7.9072 55.9182 9.20294 56.2193 10.6141 55.8258C10.7335 55.1529 10.68 54.5371 10.4946 53.9666C10.4019 53.6852 10.2762 53.4118 10.1176 53.1462C9.96721 52.8806 9.77151 52.6327 9.59229 52.3769C8.8342 51.3716 7.66412 50.502 6.48579 49.7268C5.34043 48.9458 4.13532 48.2709 3.2145 47.783C2.27308 47.301 1.67773 47 1.67773 47C1.67773 47 1.70657 47.1712 1.78485 47.4623C1.8652 47.7515 1.99086 48.1588 2.16596 48.6526C2.51616 49.6285 3.00644 50.9427 3.81808 52.1389C4.20948 52.7409 4.64415 53.335 5.11795 53.8662" fill="white"/>
<path fill-rule="evenodd" clip-rule="evenodd" d="M12.166 53.5956C12.4679 54.1368 12.9128 54.6157 13.528 55C14.9376 54.2837 15.7457 53.2113 16.1724 52.0483C16.2791 51.7565 16.3608 51.4588 16.4244 51.1569C16.4561 51.008 16.4811 50.8551 16.5038 50.7062C16.5265 50.5533 16.556 50.4004 16.581 50.2435C16.6695 49.6278 16.6922 49.0121 16.6695 48.4225C16.581 47.2435 16.5038 46.1328 16.3336 45.326C16.2587 44.9215 16.1724 44.5895 16.1134 44.3602C16.0703 44.1268 16.043 44 16.043 44C16.043 44 15.9114 44.1046 15.698 44.2998C15.471 44.495 15.1895 44.7767 14.8604 45.1328C14.1999 45.8511 13.3781 46.8753 12.7108 48.0644C12.0775 49.2414 11.6689 50.5714 11.678 51.833C11.6734 52.1529 11.7325 52.4547 11.8164 52.7485C11.8982 53.0423 12.0162 53.328 12.166 53.5956" fill="white"/>
<path fill-rule="evenodd" clip-rule="evenodd" d="M2.45048 42.8655C2.62867 43.1878 2.8171 43.5019 3.0301 43.7913C3.25335 44.0766 3.49298 44.3414 3.73876 44.5856C4.7403 45.5586 5.94666 46.1169 7.40289 45.9793C7.64867 45.3122 7.7224 44.6739 7.65276 44.0602C7.61794 43.7523 7.54626 43.4485 7.45 43.1509C7.35783 42.8491 7.25747 42.5515 7.1182 42.26C6.84989 41.6709 6.47918 41.0942 6.04907 40.5338C5.82582 40.2567 5.60667 39.9775 5.38956 39.7025C5.16427 39.4295 4.93488 39.1606 4.70139 38.8979C3.749 37.847 2.69421 36.8863 1.96507 36.1659C1.2134 35.4536 0.680884 35 0.680884 35C0.680884 35 0.660403 35.7266 0.723895 36.8227C0.76281 37.3687 0.87341 38.0029 1.00039 38.6844C1.06184 39.0251 1.13762 39.3761 1.22364 39.7312C1.30762 40.0843 1.39364 40.4476 1.53291 40.8006C1.79098 41.5108 2.0941 42.2149 2.45048 42.8655" fill="white"/>
<path fill-rule="evenodd" clip-rule="evenodd" d="M10.8148 45C12.2797 44.5328 13.2599 43.6304 13.9025 42.5957C14.0648 42.3351 14.2011 42.0684 14.3245 41.7937C14.4651 41.5189 14.5906 41.2402 14.6988 40.9555C14.913 40.39 15.0667 39.8165 15.1684 39.2551C15.283 38.6976 15.4085 38.1542 15.467 37.6509C15.5016 37.4002 15.5232 37.1596 15.5427 36.933C15.5578 36.7044 15.5665 36.4899 15.5968 36.2934C15.692 35.5153 15.6769 35 15.6769 35C15.6769 35 15.1078 35.2908 14.2985 35.8322C14.0994 35.9665 13.8809 36.1189 13.6537 36.2853C13.4222 36.4538 13.1885 36.6363 12.9678 36.8348C12.5155 37.2298 12.0482 37.687 11.6067 38.1883C11.386 38.4389 11.1761 38.7016 10.9684 38.9743C10.8711 39.1127 10.7715 39.2531 10.6806 39.3934C10.5941 39.5338 10.5119 39.6782 10.4383 39.8245C10.1354 40.4 9.8995 41.0056 9.77184 41.6192C9.71558 41.922 9.67014 42.2288 9.6788 42.5296C9.69394 42.8263 9.74587 43.1231 9.83026 43.4099C10.0034 43.9854 10.3193 44.5288 10.8148 45" fill="white"/>
<path fill-rule="evenodd" clip-rule="evenodd" d="M6.09786 27.6712C5.78854 27.0595 5.45377 26.4638 5.12879 25.9102C4.79207 25.3507 4.49058 24.8452 4.23803 24.42C3.71532 23.5616 3.33553 23 3.33553 23C3.33553 23 3.1378 23.6779 2.93028 24.7249C2.85197 25.2584 2.77954 25.8822 2.73059 26.5581C2.70514 26.895 2.68557 27.244 2.67773 27.601C2.67773 27.9601 2.70123 28.3291 2.73059 28.6981C2.7952 29.4342 2.88525 30.1783 3.06928 30.8803C3.27484 31.5863 3.54109 32.2542 3.88173 32.8299C4.53952 33.9931 5.6006 34.8014 6.97883 35C7.15894 34.7132 7.29207 34.4264 7.39387 34.1315C7.49175 33.8407 7.58768 33.5459 7.62683 33.251C7.72276 32.6554 7.67773 32.0456 7.53678 31.4239C7.42127 30.8041 7.23529 30.1783 6.97492 29.5486C6.71258 28.9168 6.39152 28.281 6.09786 27.6712" fill="white"/>
<path fill-rule="evenodd" clip-rule="evenodd" d="M13.8967 32.4549C14.3652 32.0582 14.7593 31.6099 15.0877 31.1445C15.4511 30.681 15.7752 30.2041 16.0335 29.7253C16.1693 29.4869 16.27 29.2504 16.4013 29.0196C16.5261 28.7907 16.6422 28.5656 16.7429 28.3462C16.953 27.9113 17.1019 27.5031 17.2399 27.154C17.5486 26.4654 17.6777 26 17.6777 26C17.6777 26 17.0428 26.1335 16.097 26.4425C15.1315 26.7439 13.9689 27.257 12.8151 27.9723C12.5327 28.1516 12.2327 28.3424 11.9788 28.5522C11.7226 28.7582 11.473 28.9738 11.241 29.2046C10.7834 29.6643 10.363 30.1621 10.0871 30.6943C9.82661 31.2246 9.67773 31.7835 9.67773 32.3443C9.68211 32.6209 9.70839 32.9013 9.8091 33.1798C9.91857 33.4564 10.0587 33.733 10.2557 34C11.8189 33.8722 12.9399 33.2465 13.8967 32.4549" fill="white"/>
<path fill-rule="evenodd" clip-rule="evenodd" d="M9.68115 23.2433C9.90232 22.9855 10.0769 22.7109 10.2143 22.4237C10.354 22.1366 10.4564 21.8389 10.5239 21.5266C10.5938 21.2185 10.6194 20.8936 10.659 20.5708C10.7079 19.9231 10.659 19.2335 10.5379 18.5271C10.4168 17.8207 10.2865 17.1206 10.0816 16.4121C9.68115 15.0015 9.24578 13.6746 8.85698 12.6601C8.46817 11.6456 8.20276 11 8.20276 11C8.20276 11 8.09567 11.1509 7.92804 11.4318C7.76274 11.7148 7.53923 12.1214 7.29245 12.6224C6.76162 13.6138 6.23546 15.0308 5.90486 16.5169C5.7675 17.2736 5.67903 18.0471 5.67903 18.7975C5.66971 19.1727 5.71162 19.5521 5.77681 19.9168C5.83734 20.2836 5.91883 20.6358 6.03058 20.9732C6.25874 21.6524 6.57304 22.2519 7.07127 22.7717C7.56251 23.2915 8.17948 23.7086 8.94545 24C9.24112 23.7631 9.48325 23.5095 9.68115 23.2433" fill="white"/>
<path fill-rule="evenodd" clip-rule="evenodd" d="M20.4888 18.327C20.6127 18.1191 20.6777 18 20.6777 18C20.6777 18 20.5213 18 20.251 18.0108C19.9726 18.0195 19.5967 18.0498 19.1374 18.1126C18.6782 18.1732 18.1458 18.2663 17.5626 18.4093C17.2761 18.4785 16.9672 18.5543 16.6725 18.6539C16.382 18.7557 16.0792 18.8661 15.7784 18.9961C15.183 19.2516 14.5633 19.5612 14.0248 19.9423C13.4944 20.3299 13.0026 20.776 12.6023 21.2827C12.3971 21.5296 12.2406 21.8046 12.1024 22.0904C11.9724 22.3719 11.8667 22.6685 11.7895 22.9739C11.7184 23.2813 11.6777 23.5953 11.6777 23.9201C11.694 24.2471 11.7529 24.5827 11.8545 24.9227C12.5657 25.0483 13.2302 25.0136 13.8358 24.8707C14.4352 24.7257 15.0225 24.4853 15.5387 24.1692C15.8008 24.0111 16.0467 23.8335 16.2844 23.6451C16.4043 23.5499 16.5161 23.4502 16.6258 23.3485C16.7416 23.251 16.8595 23.1514 16.9713 23.0453C17.4244 22.6317 17.8288 22.177 18.1844 21.7158C18.5664 21.2697 18.9139 20.8107 19.2025 20.3733C19.2736 20.2671 19.3427 20.1589 19.4118 20.0528C19.4869 19.9488 19.552 19.8471 19.6231 19.7496C19.7572 19.5504 19.8812 19.362 19.9889 19.1866C20.2063 18.8337 20.3709 18.5348 20.4888 18.327" fill="white"/>
<path fill-rule="evenodd" clip-rule="evenodd" d="M12.6867 14C13.3847 13.6946 13.8996 13.2921 14.2979 12.8182C14.7213 12.3582 15.0096 11.8169 15.2041 11.2201C15.6253 10.0502 15.6916 8.65433 15.6756 7.30601C15.671 6.96299 15.6527 6.62393 15.6298 6.2928C15.6161 5.96761 15.5909 5.6464 15.5657 5.3351C15.5108 4.71249 15.4399 4.13153 15.3758 3.63384C15.2591 2.65235 15.1309 2 15.1309 2C15.1309 2 15.0005 2.1269 14.7739 2.34501C14.5519 2.56709 14.2361 2.88632 13.8905 3.30271C13.5426 3.71712 13.1352 4.19696 12.7531 4.75611C12.3823 5.31725 11.9887 5.92003 11.6728 6.57436C11.3616 7.23463 11.0755 7.90879 10.9039 8.59881C10.7299 9.29081 10.6498 9.98083 10.6864 10.6371C10.7849 11.9636 11.389 13.1514 12.6867 14" fill="white"/>
<path fill-rule="evenodd" clip-rule="evenodd" d="M24.1573 14.1408C24.6621 13.809 25.1427 13.4732 25.5527 13.1353C25.976 12.8035 26.3595 12.4957 26.6659 12.2178C26.9701 11.936 27.2347 11.7121 27.411 11.5462C27.5852 11.3843 27.6777 11.2843 27.6777 11.2843C27.6777 11.2843 27.0274 11.1544 26.0112 11.0624C25.5042 11.0185 24.9223 10.9965 24.2764 11.0005C23.6305 11.0045 22.9317 11.0404 22.2439 11.1424C20.8442 11.3283 19.4356 11.7601 18.3576 12.4817C17.8352 12.8555 17.3965 13.2953 17.0857 13.803C16.7969 14.3207 16.6492 14.9144 16.6823 15.5621C18.1328 16.1358 19.5017 16.0858 20.7472 15.756C21.3842 15.594 21.9882 15.3562 22.5437 15.0723C23.1147 14.7965 23.6636 14.4806 24.1573 14.1408" fill="white"/>
<path fill-rule="evenodd" clip-rule="evenodd" d="M32.6777 73.7175C29.5931 72.7506 28.9528 72.6122 26.2486 71.2707C22.9819 69.6482 20.1917 67.2991 17.8087 64.5326C15.4297 61.7702 13.7135 58.4928 12.3368 55.1421C9.72468 48.7888 8.06779 42.2136 8.47485 35.3127C8.94737 27.2657 12.1241 19.5668 16.5507 12.8919C17.688 11.1819 18.9174 9.47602 20.2551 7.86988C20.7379 7.89431 21.192 7.84342 21.6236 7.7396C22.2107 7.59303 22.7282 7.31618 23.2314 6.98029C23.4728 6.8093 23.708 6.61591 23.9289 6.40624C24.1621 6.20471 24.379 5.98282 24.5856 5.74872C24.9988 5.27237 25.3895 4.77771 25.7433 4.2525C26.4511 3.21635 27.0504 2.14763 27.4882 1.3415C27.705 0.936406 27.883 0.598485 28.0016 0.360313C28.0609 0.24428 28.1059 0.152675 28.1387 0.0916049C28.1632 0.0325706 28.1755 0 28.1755 0C28.1755 0 28.1428 0 28.0793 0.00203566C28.0078 0.00610699 27.9075 0.0203566 27.7746 0.036642C27.5066 0.0732839 27.122 0.140461 26.6618 0.250387C25.7392 0.472274 24.5058 0.877371 23.3153 1.52471C22.135 2.17613 20.9813 3.04739 20.2674 4.1324C19.9013 4.66574 19.6538 5.25812 19.5453 5.86882C19.4431 6.37977 19.4635 6.9233 19.6047 7.47903C16.4811 11.1738 13.8955 15.4283 11.893 19.6889C9.42194 24.9552 7.92664 30.653 7.70164 36.473C7.44594 43.1541 9.27057 49.5583 11.7968 55.6876C13.8219 60.618 16.7204 65.1026 20.8668 68.5246C24.244 71.3114 26.5841 72.8727 32.3198 75C32.4384 74.8494 32.5591 73.8682 32.6777 73.7175" fill="white"/>
</svg>
