<svg width="121" height="34" viewBox="0 0 121 34" fill="none" xmlns="http://www.w3.org/2000/svg">
<mask id="mask0_0_4257" style="mask-type:luminance" maskUnits="userSpaceOnUse" x="0" y="0" width="121" height="34">
<path fill-rule="evenodd" clip-rule="evenodd" d="M0 0H121V34H0V0Z" fill="white"/>
</mask>
<g mask="url(#mask0_0_4257)">
<path fill-rule="evenodd" clip-rule="evenodd" d="M1.67499 32.9991C2.20743 32.9991 2.60103 32.8558 2.85336 32.5714C3.10577 32.2863 3.23194 31.8716 3.23194 31.3257V31.2675C3.23194 30.7311 3.10805 30.3225 2.86149 30.0392C2.61379 29.7566 2.21328 29.6149 1.65996 29.6149H1.18999V32.9991H1.67499ZM0 28.6952H1.71894C2.17851 28.6952 2.58137 28.7543 2.92632 28.8734C3.27248 28.9934 3.55949 29.1613 3.78989 29.3811C4.01557 29.6063 4.18463 29.8766 4.3004 30.1922C4.41616 30.5103 4.474 30.8624 4.474 31.2518V31.3101C4.474 31.7012 4.41616 32.0568 4.3004 32.3784C4.19162 32.6879 4.01487 32.9704 3.7829 33.2035C3.538 33.4416 3.24303 33.6224 2.91941 33.7336C2.53044 33.8649 2.12154 33.9284 1.7109 33.9206H0V28.6952ZM12.0306 28.6952H15.4536V29.6158H13.2125V30.8363H15.0056V31.6986H13.2125V33H15.5705V33.9206H12.0306V28.6952V28.6952ZM22.6734 28.6952H23.9293L25.1784 32.7061L26.4262 28.6952H27.5433L25.7954 33.9206H24.4294L22.6734 28.6952V28.6952ZM34.9472 28.6952H38.369V29.6158H36.129V30.8363H37.9221V31.6986H36.1279V33H38.4859V33.9206H34.9472V28.6952V28.6952ZM46.0158 28.6952H47.2058V32.9991H49.3427V33.9206H46.0158V28.6952V28.6952ZM59.0895 33.0573C59.3094 33.0573 59.5097 33.0165 59.688 32.933C59.8654 32.8513 60.0224 32.7314 60.1475 32.5818C60.2771 32.4219 60.3743 32.2376 60.4334 32.0404C60.5029 31.8274 60.5377 31.5883 60.5377 31.3257V31.2675C60.5377 31.0145 60.5029 30.7815 60.4381 30.572C60.3782 30.3764 60.2821 30.1931 60.1545 30.0322C60.0285 29.8819 59.8702 29.7619 59.6915 29.681C59.4976 29.595 59.2875 29.5532 59.0756 29.5567C58.8441 29.5567 58.6403 29.5967 58.4621 29.6775C58.2827 29.7575 58.1299 29.8705 58.0025 30.0166C57.8752 30.1679 57.7791 30.3496 57.7131 30.5616C57.646 30.7737 57.6124 31.011 57.6124 31.2744V31.3327C57.6124 31.6004 57.6494 31.8403 57.7235 32.0524C57.7976 32.2637 57.8995 32.4436 58.0314 32.5897C58.1588 32.7401 58.3139 32.8558 58.4945 32.9365C58.6751 33.0174 58.8742 33.0573 59.0895 33.0573V33.0573ZM59.0675 33.9997C58.6566 33.9997 58.2838 33.9327 57.9516 33.7988C57.6331 33.6754 57.345 33.485 57.1066 33.2408C56.8679 33.0017 56.6825 32.7148 56.5625 32.4002C56.433 32.0621 56.3682 31.7021 56.3715 31.3405V31.2814C56.3715 30.8919 56.4398 30.5329 56.5741 30.2069C56.7024 29.8896 56.8965 29.6036 57.1436 29.3663C57.3832 29.1334 57.6668 28.9509 57.9945 28.8195C58.3232 28.6866 58.6832 28.6214 59.0756 28.6214C59.4715 28.6214 59.8349 28.6848 60.1661 28.8109C60.496 28.9378 60.7819 29.116 61.0215 29.3456C61.26 29.5837 61.4485 29.8671 61.576 30.1782C61.7103 30.4999 61.7774 30.858 61.7774 31.2527V31.3101C61.7774 31.7005 61.7125 32.0594 61.5829 32.3881C61.4532 32.7174 61.2704 33.0009 61.0366 33.2408C60.7944 33.4842 60.5038 33.6746 60.1834 33.7988C59.828 33.9371 59.449 34.0057 59.0675 33.9997V33.9997ZM71.1213 31.1944C71.42 31.1944 71.6423 31.1276 71.7892 30.9928C71.9363 30.8589 72.0092 30.6608 72.0092 30.3973V30.3686C72.0092 30.0904 71.9316 29.8914 71.7777 29.7732C71.6237 29.6532 71.4037 29.5932 71.1201 29.5932H70.5182V31.1944H71.1201H71.1213ZM69.3351 28.6952H71.1503C71.7916 28.6952 72.2858 28.8335 72.6331 29.1108C72.9803 29.389 73.154 29.8053 73.154 30.36V30.3904C73.154 30.6668 73.1089 30.9085 73.0151 31.1102C72.9225 31.3118 72.7906 31.4804 72.6192 31.617C72.4356 31.7595 72.2244 31.863 71.9987 31.9213C71.7557 31.9865 71.4848 32.0194 71.1862 32.0194H70.5182V33.9206H69.3352V28.6952H69.3351ZM80.6319 28.6952H82.2039L83.431 31.9465L84.6417 28.6952H86.1848V33.9206H85.0029V30.2504L83.5479 33.9206H83.1589L81.6969 30.2504V33.9206H80.6319V28.6952V28.6952ZM94.0228 28.6952H97.4445V29.6158H95.2046V30.8354H96.9966V31.6986H95.2046V33H97.5614V33.9206H94.0228V28.6952V28.6952ZM105.092 28.6952H106.471L108.469 32.1359V28.6952H109.527V33.9206H108.337L106.149 30.2V33.9206H105.092V28.6952V28.6952ZM118.385 29.6149H116.967V28.6936H121V29.6149H119.582V33.9206H118.385V29.6149V29.6149ZM11.1034 20.7586V12.143H4.04222V20.7586H0.0324146V0.172033H4.04222V8.58591H11.1034V0.172033H15.1133V20.7569H11.1034V20.7586ZM37.7484 13.7043C37.7484 14.8032 37.5505 15.7959 37.1534 16.6816C36.7751 17.5414 36.2213 18.3142 35.5271 18.9506C34.8241 19.5859 34.0052 20.0814 33.1147 20.4109C32.1621 20.7629 31.1526 20.9395 30.1362 20.9307C29.0713 20.9307 28.0781 20.7586 27.1579 20.4109C26.2673 20.0823 25.4484 19.5868 24.7455 18.9513C24.0509 18.315 23.4971 17.5431 23.1191 16.6825C22.7208 15.7959 22.5229 14.8032 22.5229 13.7043V0.172033H26.5327V13.5575C26.5327 14.7535 26.8534 15.6828 27.4958 16.3487C28.1371 17.0129 29.0122 17.3458 30.1212 17.3458C31.2301 17.3458 32.11 17.0129 32.7617 16.3487C33.4134 15.6828 33.7398 14.7535 33.7398 13.5575V0.173858H37.7497V13.7043H37.7484ZM53.033 3.75873V20.7586H49.0232V3.75873H43.6185V0.172033H58.4378V3.75786H53.0331L53.033 3.75873ZM72.5312 3.75873V20.7586H68.5214V3.75873H63.1155V0.172033H77.9359V3.75786H72.5312V3.75873ZM94.1211 10.4653C94.1211 9.48302 94.1061 8.66849 94.0772 8.02348C94.0593 7.48538 94.0059 6.94903 93.9174 6.41798C93.8387 5.99464 93.7322 5.65205 93.5956 5.39213C93.2503 4.72799 92.6905 4.19859 92.0062 3.88912C91.5339 3.67971 91.0209 3.5754 90.5037 3.58487C89.9822 3.57618 89.4649 3.68049 88.9873 3.88912C88.5653 4.07255 88.1872 4.34376 87.8784 4.68374C87.6839 4.8949 87.5217 5.13395 87.3968 5.39213C87.2499 5.71907 87.1468 6.06409 87.09 6.41798C87.0113 6.8422 86.9581 7.37759 86.9292 8.02269C86.8972 8.83626 86.8829 9.65079 86.8863 10.4653C86.8863 11.4494 86.9002 12.263 86.9292 12.9098C86.9473 13.447 87.0014 13.9833 87.0912 14.5137C87.1676 14.9378 87.2706 15.2795 87.3968 15.5386C87.523 15.8002 87.6828 16.0366 87.8784 16.2478C88.1689 16.5764 88.5394 16.8398 88.9873 17.0432C89.4649 17.252 89.9822 17.3553 90.5037 17.3466C91.0675 17.3466 91.5687 17.2458 92.0062 17.0432C92.4224 16.8563 92.7949 16.586 93.1002 16.2478C93.2946 16.0366 93.4602 15.7994 93.5956 15.5402C93.7322 15.2795 93.8387 14.9378 93.9174 14.5137C93.9938 14.0903 94.0483 13.554 94.0772 12.9098C94.1061 12.263 94.1211 11.4494 94.1211 10.4653V10.4653ZM98.131 10.4653C98.131 11.352 98.1218 12.1814 98.102 12.9532C98.0824 13.7234 98.0094 14.4458 97.8845 15.1204C97.7654 15.7758 97.5608 16.4121 97.2756 17.0137C96.9727 17.6326 96.5656 18.1951 96.0717 18.6758C95.3702 19.386 94.5383 19.9554 93.6211 20.3527C92.7228 20.7386 91.6833 20.9307 90.5037 20.9307C89.323 20.9307 88.28 20.7386 87.3714 20.3527C86.4481 19.958 85.6108 19.3887 84.9057 18.6758C84.4117 18.1951 84.0045 17.6326 83.7018 17.0137C83.4171 16.413 83.2172 15.7758 83.108 15.1204C82.9923 14.4458 82.9239 13.7234 82.9043 12.9524C82.8843 12.1231 82.8746 11.2946 82.8754 10.4653C82.8754 9.57864 82.8858 8.7502 82.9043 7.98001C82.9239 7.20817 82.991 6.48657 83.108 5.81113C83.2237 5.13656 83.4217 4.50554 83.703 3.91781C84.0052 3.29888 84.4125 2.73644 84.9068 2.25486C85.6115 1.54299 86.448 0.97352 87.3702 0.577992C88.28 0.192896 89.3242 0 90.5037 0C91.6833 0 92.7228 0.192896 93.6211 0.577992C94.5205 0.963958 95.3366 1.52204 96.0728 2.25486C96.5937 2.77556 96.9942 3.3293 97.2756 3.91781C97.5557 4.50554 97.7594 5.13656 97.8845 5.81113C98.0106 6.48657 98.0824 7.20817 98.102 7.98001C98.1218 8.75194 98.131 9.57951 98.131 10.4653V10.4653ZM117.396 20.7586L109.202 8.1244V20.7586H105.192V0.172033H108.796L116.989 12.7776V0.172033H121V20.7569H117.396V20.7586Z" fill="white"/>
</g>
</svg>
