<svg width="40" height="40" viewBox="0 0 40 40" fill="none" xmlns="http://www.w3.org/2000/svg">
<path d="M21.3177 30.824V9.18113L22.609 10.4973C22.9281 10.8225 23.4416 10.8225 23.7607 10.4973V10.4973C24.0798 10.1721 24.0798 9.64864 23.7607 9.32341L20.5 6L17.2393 9.32341C16.9202 9.64864 16.9202 10.1721 17.2393 10.4973V10.4973C17.5584 10.8225 18.0719 10.8225 18.391 10.4973L19.6823 9.18113V30.8189L18.391 29.5027C18.0719 29.1775 17.5584 29.1775 17.2393 29.5027V29.5027C16.9202 29.8279 16.9202 30.3514 17.2393 30.6766L20.5 34L23.7607 30.6766C24.0798 30.3514 24.0798 29.8279 23.7607 29.5027V29.5027C23.4416 29.1775 22.9281 29.1775 22.609 29.5027L21.3177 30.824Z" fill="black"/>
<rect width="40" height="2" rx="1" fill="black"/>
<rect y="38" width="40" height="2" rx="1" fill="black"/>
</svg>
