<svg width="16" height="16" viewBox="0 0 16 16" fill="none" xmlns="http://www.w3.org/2000/svg">
<path fill-rule="evenodd" clip-rule="evenodd" d="M7 3.5C7 1.56701 5.43299 0 3.5 0C1.56701 0 0 1.56701 0 3.5C0 5.43299 1.56701 7 3.5 7C5.43299 7 7 5.43299 7 3.5ZM1.61538 3.5C1.61538 2.45916 2.45916 1.61538 3.5 1.61538C4.54084 1.61538 5.38462 2.45916 5.38462 3.5C5.38462 4.54084 4.54084 5.38462 3.5 5.38462C2.45916 5.38462 1.61538 4.54084 1.61538 3.5Z" fill="white"/>
<path fill-rule="evenodd" clip-rule="evenodd" d="M16 3.5C16 1.56699 14.433 0 12.5 0C10.567 0 9 1.56699 9 3.5C9 5.43301 10.567 7 12.5 7C14.433 7 16 5.43301 16 3.5ZM10.6154 3.5C10.6154 2.45914 11.4591 1.61538 12.5 1.61538C13.5409 1.61538 14.3846 2.45914 14.3846 3.5C14.3846 4.54086 13.5409 5.38462 12.5 5.38462C11.4591 5.38462 10.6154 4.54086 10.6154 3.5Z" fill="white"/>
<path fill-rule="evenodd" clip-rule="evenodd" d="M16 12.5C16 10.567 14.433 9 12.5 9C10.567 9 9 10.567 9 12.5C9 14.433 10.567 16 12.5 16C14.433 16 16 14.433 16 12.5ZM10.6154 12.5C10.6154 11.4591 11.4591 10.6154 12.5 10.6154C13.5409 10.6154 14.3846 11.4591 14.3846 12.5C14.3846 13.5409 13.5409 14.3846 12.5 14.3846C11.4591 14.3846 10.6154 13.5409 10.6154 12.5Z" fill="white"/>
<path fill-rule="evenodd" clip-rule="evenodd" d="M7 12.5C7 10.567 5.43301 9 3.5 9C1.56699 9 0 10.567 0 12.5C0 14.433 1.56699 16 3.5 16C5.43301 16 7 14.433 7 12.5ZM1.61538 12.5C1.61538 11.4591 2.45914 10.6154 3.5 10.6154C4.54086 10.6154 5.38462 11.4591 5.38462 12.5C5.38462 13.5409 4.54086 14.3846 3.5 14.3846C2.45914 14.3846 1.61538 13.5409 1.61538 12.5Z" fill="white"/>
</svg>
