<svg width="18" height="18" viewBox="0 0 18 18" fill="none" xmlns="http://www.w3.org/2000/svg">
<path d="M11.4286 3L11.4286 6.57141L15 6.57143V8H10V3H11.4286Z" fill="black"/>
<path fill-rule="evenodd" clip-rule="evenodd" d="M4.38369 0.547143L3.83655 0L1.13417 2.70237C-0.0517231 3.89316 -0.289128 5.77445 0.335314 7.89872C0.926637 9.91033 2.26175 12.0462 4.10775 13.8922C5.95375 15.7382 8.08964 17.0733 10.1013 17.6646C12.2255 18.2891 14.1068 18.0517 15.2965 16.8669L15.2976 16.8658L17.4529 14.7106L18 14.1634L17.4529 13.6163L13.2963 9.45975L12.752 8.91544L12.2049 9.45692L10.633 11.0126C10.2791 11.3647 9.70961 11.3647 9.35718 11.014L6.98456 8.64141C6.63529 8.29037 6.63529 7.72085 6.98595 7.36842L8.54305 5.7951L9.08454 5.24797L8.54022 4.70366L4.38369 0.547143ZM12.7463 11.0983L15.8114 14.1634L14.2045 15.7704L14.204 15.7708C13.4759 16.4955 12.1711 16.66 10.5377 16.1799C8.78731 15.6654 6.87268 14.4686 5.20203 12.7979C3.53139 11.1273 2.33459 9.21267 1.82005 7.46228L1.80584 7.41337C1.34316 5.80253 1.51174 4.51634 2.22958 3.79553L3.83654 2.18857L6.9016 5.25362L5.88745 6.27836C4.93757 7.23306 4.93757 8.77816 5.88889 9.73431L8.26427 12.1097L8.29318 12.138C9.25266 13.0623 10.7765 13.0529 11.7231 12.1111L12.7463 11.0983Z" fill="black"/>
</svg>
