<svg width="23" height="18" viewBox="0 0 23 18" fill="none" xmlns="http://www.w3.org/2000/svg">
<path fill-rule="evenodd" clip-rule="evenodd" d="M20.8438 18C22.0326 18 23 17.0682 23 15.9231V4.84615C23 3.70108 22.0326 2.76923 20.8438 2.76923H17.6949L16.4601 0.383538C16.3379 0.148154 16.0892 0 15.8168 0H7.18463C6.91222 0 6.66281 0.148154 6.54206 0.383538L5.30509 2.76923H2.15625C0.967438 2.76923 0 3.70108 0 4.84615V15.9231C0 17.0682 0.967438 18 2.15625 18H20.8438ZM20.8438 4.15385C21.2398 4.15385 21.5625 4.46469 21.5625 4.84615V15.9231C21.5625 16.3045 21.2398 16.6154 20.8438 16.6154H2.15625C1.76022 16.6154 1.4375 16.3045 1.4375 15.9231V4.84615C1.4375 4.46469 1.76022 4.15385 2.15625 4.15385H5.75H5.75144C5.83625 4.15315 5.91819 4.13377 5.99725 4.10608C6.01953 4.09777 6.03966 4.08946 6.0605 4.07908C6.12231 4.05069 6.17909 4.014 6.23084 3.969C6.23559 3.96473 6.24062 3.96113 6.24562 3.95755L6.24563 3.95755L6.24563 3.95755L6.24564 3.95755C6.25198 3.95301 6.25828 3.9485 6.26391 3.94269C6.31422 3.89285 6.3595 3.83608 6.39328 3.77031L7.62953 1.38462H15.3719L16.6067 3.77031C16.6162 3.78901 16.6301 3.80372 16.6441 3.81849L16.6441 3.8185C16.6533 3.82832 16.6626 3.83817 16.6707 3.84923L16.681 3.86391C16.7067 3.90046 16.732 3.93631 16.7656 3.96623C16.7922 3.99022 16.8223 4.00734 16.8529 4.02469C16.8612 4.02937 16.8694 4.03407 16.8777 4.03892L16.8992 4.05233C16.9309 4.07222 16.9619 4.09169 16.9977 4.10469C17.037 4.11915 17.0776 4.12468 17.1186 4.13024L17.1487 4.13446C17.1625 4.13641 17.1758 4.13991 17.189 4.14342C17.2088 4.14864 17.2285 4.15385 17.25 4.15385H20.8438ZM11.5 14.5385C8.72563 14.5385 6.46875 12.3646 6.46875 9.69231C6.46875 7.02 8.72563 4.84615 11.5 4.84615C14.2744 4.84615 16.5312 7.02 16.5312 9.69231C16.5312 12.3646 14.2744 14.5385 11.5 14.5385ZM7.90625 9.69231C7.90625 7.78362 9.51841 6.23077 11.5 6.23077C13.4816 6.23077 15.0938 7.78362 15.0938 9.69231C15.0938 11.601 13.4816 13.1538 11.5 13.1538C9.51841 13.1538 7.90625 11.601 7.90625 9.69231Z" fill="black"/>
</svg>
