<svg width="18" height="10" viewBox="0 0 18 10" fill="none" xmlns="http://www.w3.org/2000/svg">
<g opacity="0.6">
<path fill-rule="evenodd" clip-rule="evenodd" d="M6.71568 4.94994C6.49608 4.98547 6.38628 5.05181 6.38628 5.14954C6.38508 5.54995 6.19548 6.02794 5.81687 6.58234C5.43887 7.05441 4.72906 7.26291 3.68685 7.2096C2.36384 7.0396 1.68883 6.01965 1.66183 4.14972C1.66183 4.04844 1.66603 3.94893 1.67383 3.85179C1.70443 3.46205 1.76563 3.07231 1.85863 2.68317C2.20604 1.49677 2.96265 0.905052 4.12906 0.908606C4.94087 0.954214 5.46407 1.08748 5.69927 1.30842C5.93448 1.52935 6.06048 1.74436 6.07848 1.95403C6.11748 2.30409 6.25068 2.48 6.47748 2.4806C6.70428 2.48119 6.86509 2.39412 6.90049 2.20576C6.98389 1.7639 6.90349 1.24741 6.90349 1.24741C6.84949 1.0016 6.62328 0.784813 6.22548 0.595866C5.72207 0.32755 5.00387 0.169996 4.07146 0.123796C3.32865 0.12498 2.67044 0.25825 2.09564 0.523605C0.773223 1.19055 0.0754156 2.29876 0.00101487 3.84646L0.000414861 4.09523C-0.0259854 6.63269 1.20763 7.9411 3.70125 8.02047C4.46146 8.00092 5.03627 7.91978 5.42387 7.77703C6.51108 7.3328 7.05289 6.46447 7.04989 5.17264C7.04989 5.05714 6.93889 4.98311 6.71568 4.94994M11.5871 8.09569C11.1041 8.15552 10.8623 8.3569 10.8611 8.69985V8.75375C10.8611 8.81535 10.9115 8.95987 11.0135 9.18732C10.9367 9.25188 10.8179 9.28446 10.6565 9.28387C10.0205 9.28209 9.70371 8.81535 9.70671 7.88424L9.72772 1.26873C9.69291 0.658651 9.39471 0.237519 8.83251 0.00474127L7.26949 2.79391e-06C7.10869 -0.000589516 7.01509 0.0929954 6.98869 0.280758L6.98809 0.432389C6.98749 0.580466 7.23589 0.682344 7.73269 0.738021C8.0399 0.739205 8.1923 1.03714 8.1905 1.633L8.1731 7.18768C8.1803 8.39659 8.6801 9.25721 9.67311 9.76956C9.97612 9.92178 10.3289 9.99878 10.7309 9.99997C11.5865 10.0023 12.1103 9.70796 12.3023 9.11684L12.3305 8.83549C12.2585 8.34328 12.0107 8.09688 11.5871 8.09569" fill="white"/>
<path fill-rule="evenodd" clip-rule="evenodd" d="M14.8794 4.03011C14.8794 4.44235 14.5404 4.77701 14.1228 4.77701C13.7052 4.77701 13.3662 4.44235 13.3662 4.03011C13.3662 3.61786 13.7052 3.2832 14.1228 3.2832C14.5404 3.2832 14.8794 3.61786 14.8794 4.03011" fill="white"/>
<path fill-rule="evenodd" clip-rule="evenodd" d="M17.7466 2.48173C17.1268 0.873609 15.9298 0.0668829 14.1567 0.0615521C13.5069 0.0591829 12.8649 0.203706 12.2799 0.483869C10.9575 1.2592 10.2939 2.41598 10.2891 3.95362C10.2867 4.71178 10.3959 5.36332 10.6173 5.90883C11.2089 7.30017 12.3639 7.9985 14.0823 8.00383C14.8023 8.0062 15.4372 7.86346 15.9868 7.57678C17.3236 6.84824 17.9944 5.64111 17.9998 3.9554C17.9998 3.45371 17.914 2.95558 17.7466 2.48173M16.1704 5.03814C15.8146 6.49167 15.1456 7.21665 14.1615 7.21369C13.8249 7.21251 13.5255 7.15387 13.2627 7.03778C12.4233 6.58762 12.0057 5.60498 12.0105 4.08867L12.0399 3.45549C12.3051 1.71291 13.0005 0.843401 14.1267 0.846955C14.3751 0.847547 14.5383 0.864132 14.6145 0.897301C15.7288 1.21478 16.2832 2.26494 16.2772 4.0478C16.258 4.44464 16.222 4.77456 16.1704 5.03814" fill="white"/>
</g>
</svg>
