<svg width="16" height="16" viewBox="0 0 16 16" fill="none" xmlns="http://www.w3.org/2000/svg">
<path opacity="0.697266" fill-rule="evenodd" clip-rule="evenodd" d="M8 16C12.964 16 16 12.964 16 8C16 3.036 12.964 0 8 0C3.036 0 0 3.036 0 8C0 12.964 3.036 16 8 16M6.85 5.594L8 6.743L9.15 5.593C9.373 5.361 9.704 5.268 10.015 5.35C10.327 5.431 10.57 5.675 10.651 5.986C10.732 6.297 10.638 6.628 10.406 6.851L9.257 8L10.407 9.15C10.639 9.373 10.732 9.704 10.65 10.015C10.569 10.327 10.325 10.569 10.014 10.65C9.703 10.732 9.372 10.638 9.149 10.406L8 9.257L6.85 10.407C6.627 10.639 6.296 10.732 5.985 10.65C5.673 10.569 5.43 10.325 5.349 10.014C5.268 9.703 5.362 9.372 5.594 9.149L6.743 8L5.593 6.85C5.258 6.501 5.263 5.947 5.606 5.605C5.949 5.263 6.502 5.258 6.851 5.594" fill="white"/>
</svg>
