<svg width="278" height="203" viewBox="0 0 278 203" fill="none" xmlns="http://www.w3.org/2000/svg">
<path fill-rule="evenodd" clip-rule="evenodd" d="M0.00488281 204L145.265 151H278.005V203L0.00488281 204Z" fill="url(#paint0_linear_55_9510)"/>
<path fill-rule="evenodd" clip-rule="evenodd" d="M107.592 159V167.813C107.592 167.813 104.901 170.484 97.6366 167.813V159H107.592Z" fill="black"/>
<mask id="mask0_55_9510" style="mask-type:luminance" maskUnits="userSpaceOnUse" x="244" y="0" width="148" height="90">
<path fill-rule="evenodd" clip-rule="evenodd" d="M391.314 0H244.974V90H391.314V0Z" fill="white"/>
</mask>
<g mask="url(#mask0_55_9510)">
<path fill-rule="evenodd" clip-rule="evenodd" d="M244.983 90C245.566 75.6049 246.647 1.27605 246.647 1.27605C254.123 -0.931726 374.451 0.356026 378.289 0.539891C382.128 0.724452 383.225 1.82764 383.225 1.82764C383.225 1.82764 387.887 3.40164 390.08 38.0727L391.314 81.7198C391.314 81.7198 388.344 80.3053 378.289 80.2503C368.235 80.1946 243.739 85.4507 244.983 90" fill="url(#paint1_linear_55_9510)"/>
</g>
<path fill-rule="evenodd" clip-rule="evenodd" d="M248.955 1.26962C241.548 -0.92693 122.311 0.354277 118.507 0.537208C114.704 0.720138 113.617 1.81842 113.617 1.81842C113.617 1.81842 108.997 3.38372 106.824 37.8793L105.601 81.3046C105.601 81.3046 108.409 80.7211 118.371 80.6657C128.335 80.6103 248.239 85.4739 247.007 90C248.05 76.68 248.955 1.26962 248.955 1.26962Z" fill="url(#paint2_linear_55_9510)"/>
<path fill-rule="evenodd" clip-rule="evenodd" d="M106.597 40C106.597 40 96.7451 40.4813 92.577 41.7912C88.3337 43.1257 78.3772 46.1044 70.7581 54.2304C70.7581 54.2304 77.5681 50.6426 95.8874 55.2593L96.1041 85L105.61 80.9473L106.597 40Z" fill="url(#paint3_linear_55_9510)"/>
<path fill-rule="evenodd" clip-rule="evenodd" d="M95.6462 55C98.2923 53.0266 100.919 50.8838 103.61 49C100.505 49.9774 97.7399 52.2305 95.6462 55" fill="#B07F5C"/>
<path fill-rule="evenodd" clip-rule="evenodd" d="M69.763 57.1663V153.252C69.763 159 72.7505 159 72.7505 159H416.87C421.216 159 422.846 155.988 423.389 150.788C423.932 145.586 425.018 61.8204 425.018 58.5351C425.018 58.5351 426.105 54.4289 422.302 53.8817C418.5 53.3338 410.991 51.0012 398.582 54.7937C398.582 54.7937 398.039 56.436 398.039 60.0862V117.573H94.207C94.207 117.573 96.742 56.436 95.1125 54.7937C93.4831 53.1514 84.0676 50.5349 71.5735 53.0298C71.5735 53.0298 69.763 52.6042 69.763 57.1663" fill="url(#paint4_linear_55_9510)"/>
<path fill-rule="evenodd" clip-rule="evenodd" d="M398.161 120.411C398.161 120.411 316.271 124.839 246.295 118.912C246.295 118.912 244.684 84.4598 248.621 81.9816C251.727 80.0263 251.922 80.3656 268.322 80.1412C285.607 79.9053 376.84 80.0073 381.487 80.1412C386.134 80.2759 393.788 81.3534 398.161 83.7772C402.534 86.2016 402.261 90.7812 402.261 90.7812C402.261 90.7812 401.168 103.98 401.168 107.751C401.168 111.522 402.574 120.205 398.161 120.411" fill="url(#paint5_linear_55_9510)"/>
<path fill-rule="evenodd" clip-rule="evenodd" d="M96.8652 119.455C96.8652 119.455 177.19 125.278 246.953 119.307C245.728 119.409 248.16 84.4703 246.1 82.3352C243.554 79.6968 240.205 79.7577 224.471 80.3002C207.248 80.8948 116.285 80.1653 111.652 80.3002C107.019 80.4358 102.588 80.4358 98.2278 82.8784C93.8678 85.3203 94.1402 89.9342 94.1402 89.9342C94.1402 89.9342 93.8678 102.901 93.8678 106.701C93.8678 110.499 92.466 119.247 96.8652 119.455" fill="url(#paint6_linear_55_9510)"/>
<path fill-rule="evenodd" clip-rule="evenodd" d="M92.7177 21.1401C92.7177 21.1401 137.229 25.3938 141.906 29.1996C146.583 33.0054 165.017 60.8415 168.318 78.9997H115.768C115.836 79.1589 82.159 17.689 92.7177 21.1401" fill="url(#paint7_linear_55_9510)"/>
<path fill-rule="evenodd" clip-rule="evenodd" d="M131.579 22.1611C131.579 22.1611 176.069 26.4134 180.744 30.2178C185.418 34.0222 203.844 61.8484 207.144 80H154.619C154.619 80 120.914 18.4521 131.579 22.1611" fill="url(#paint8_linear_55_9510)"/>
<defs>
<linearGradient id="paint0_linear_55_9510" x1="0.00488281" y1="151" x2="0.00488281" y2="204" gradientUnits="userSpaceOnUse">
<stop/>
<stop offset="1" stop-color="#182028" stop-opacity="0.01"/>
</linearGradient>
<linearGradient id="paint1_linear_55_9510" x1="391.314" y1="-6.10352e-05" x2="391.314" y2="90" gradientUnits="userSpaceOnUse">
<stop stop-color="#A1A9B0"/>
<stop offset="1" stop-color="#5B636A"/>
</linearGradient>
<linearGradient id="paint2_linear_55_9510" x1="248.955" y1="0" x2="248.955" y2="90" gradientUnits="userSpaceOnUse">
<stop stop-color="#A1A9B0"/>
<stop offset="1" stop-color="#5B636A"/>
</linearGradient>
<linearGradient id="paint3_linear_55_9510" x1="106.597" y1="40" x2="106.597" y2="85" gradientUnits="userSpaceOnUse">
<stop stop-color="#A7AFB6"/>
<stop offset="1" stop-color="#373F46"/>
</linearGradient>
<linearGradient id="paint4_linear_55_9510" x1="425.162" y1="52" x2="425.162" y2="159" gradientUnits="userSpaceOnUse">
<stop stop-color="#131B22"/>
<stop offset="0.999235" stop-color="#35424C"/>
</linearGradient>
<linearGradient id="paint5_linear_55_9510" x1="402.265" y1="80" x2="402.265" y2="122" gradientUnits="userSpaceOnUse">
<stop stop-color="#A7AFB6"/>
<stop offset="1" stop-color="#373F46"/>
</linearGradient>
<linearGradient id="paint6_linear_55_9510" x1="246.965" y1="80" x2="246.965" y2="122" gradientUnits="userSpaceOnUse">
<stop stop-color="#A7AFB6"/>
<stop offset="1" stop-color="#373F46"/>
</linearGradient>
<linearGradient id="paint7_linear_55_9510" x1="168.318" y1="21" x2="168.318" y2="79" gradientUnits="userSpaceOnUse">
<stop stop-color="#131B22"/>
<stop offset="0.999235" stop-color="#35424C"/>
</linearGradient>
<linearGradient id="paint8_linear_55_9510" x1="207.144" y1="22" x2="207.144" y2="80" gradientUnits="userSpaceOnUse">
<stop stop-color="#383F45"/>
<stop offset="1" stop-color="#5B636A"/>
</linearGradient>
</defs>
</svg>
