<svg width="15" height="15" viewBox="0 0 15 15" fill="none" xmlns="http://www.w3.org/2000/svg">
<mask id="mask0_0_19" style="mask-type:luminance" maskUnits="userSpaceOnUse" x="0" y="0" width="15" height="15">
<path fill-rule="evenodd" clip-rule="evenodd" d="M0 0H15V15H0V0Z" fill="white"/>
</mask>
<g mask="url(#mask0_0_19)">
<path fill-rule="evenodd" clip-rule="evenodd" d="M14.3181 8.18182C13.9415 8.18182 13.6363 8.48714 13.6363 8.86365C13.6363 9.23962 13.3304 9.54547 12.9545 9.54547C12.5785 9.54547 12.2726 9.23962 12.2726 8.86365C12.2726 8.48774 12.5785 8.18182 12.9545 8.18182C13.331 8.18182 13.6363 7.8766 13.6363 7.49999V4.09091H14.3181C14.6477 4.09091 14.9302 3.85511 14.989 3.53079C15.0478 3.20637 14.8662 2.88642 14.5575 2.7707L7.28482 0.0434252C7.20828 0.0147376 7.12719 0 7.04542 0H5.4545V4.09091H4.09089V0H2.49999C2.27199 0 2.05916 0.113963 1.93271 0.303639L0.114544 3.03091C0.0398062 3.14287 0 3.27449 0 3.40908V6.59091C0 6.96749 0.305268 7.27274 0.681824 7.27274C1.05838 7.27274 1.36365 6.96753 1.36365 6.59091V4.09091H2.72726V13.6363H2.49999C2.12344 13.6363 1.81817 13.9416 1.81817 14.3182C1.81817 14.6947 2.12344 15 2.49999 15H3.40907H6.13633H7.04542C7.42196 15 7.72724 14.6947 7.72724 14.3182C7.72724 13.9416 7.42196 13.6363 7.04542 13.6363H6.81813V4.09091H12.2726V6.9355C11.4791 7.21696 10.909 7.97478 10.909 8.86365C10.909 9.99156 11.8266 10.9091 12.9545 10.9091C14.0823 10.9091 14.9999 9.99156 14.9999 8.86365C14.9999 8.48709 14.6946 8.18182 14.3181 8.18182" fill="white"/>
</g>
</svg>
