<svg width="42" height="42" viewBox="0 0 42 42" fill="none" xmlns="http://www.w3.org/2000/svg">
<mask id="mask0_0_108" style="mask-type:luminance" maskUnits="userSpaceOnUse" x="0" y="0" width="42" height="42">
<path fill-rule="evenodd" clip-rule="evenodd" d="M0 0H42V42H0V0Z" fill="white"/>
</mask>
<g mask="url(#mask0_0_108)">
<path fill-rule="evenodd" clip-rule="evenodd" d="M40.0907 22.9091C39.0363 22.9091 38.1816 23.764 38.1816 24.8182C38.1816 25.8709 37.325 26.7273 36.2725 26.7273C35.2198 26.7273 34.3634 25.8709 34.3634 24.8182C34.3634 23.7657 35.2198 22.9091 36.2725 22.9091C37.3268 22.9091 38.1816 22.0545 38.1816 21V11.4545H40.0907C41.0137 11.4545 41.8046 10.7943 41.9691 9.88621C42.1339 8.97785 41.6253 8.08199 40.7611 7.75795L20.3975 0.12159C20.1832 0.0412652 19.9561 0 19.7272 0H15.2726V11.4545H11.4545V0H6.99998C6.36158 0 5.76565 0.319096 5.41159 0.850188L0.320722 8.48655C0.111457 8.80003 0 9.16858 0 9.54543V18.4546C0 19.509 0.854752 20.3637 1.90911 20.3637C2.96346 20.3637 3.81822 19.5091 3.81822 18.4546V11.4545H7.63633V38.1818H6.99998C5.94562 38.1818 5.09087 39.0364 5.09087 40.0909C5.09087 41.1451 5.94562 42 6.99998 42H9.54538H17.1817H19.7272C20.7815 42 21.6363 41.1451 21.6363 40.0909C21.6363 39.0365 20.7815 38.1818 19.7272 38.1818H19.0908V11.4545H34.3634V19.4194C32.1415 20.2075 30.5453 22.3294 30.5453 24.8182C30.5453 27.9764 33.1143 30.5455 36.2725 30.5455C39.4305 30.5455 41.9997 27.9764 41.9997 24.8182C41.9997 23.7638 41.1449 22.9091 40.0907 22.9091" fill="black"/>
</g>
</svg>
