<svg width="46" height="48" viewBox="0 0 46 48" fill="none" xmlns="http://www.w3.org/2000/svg">
<path fill-rule="evenodd" clip-rule="evenodd" d="M17.3504 28.8648C16.854 28.8648 16.3872 28.6729 16.0362 28.3245L7.47814 19.8316H27.2227L18.6645 28.3245C18.3137 28.6729 17.8469 28.8648 17.3504 28.8648V28.8648ZM16.5717 8.57164V11.6652C16.5717 12.2676 17.0655 12.7577 17.6725 12.7577C18.2795 12.7577 18.7733 12.2676 18.7733 11.6652V6.67567L19.6888 7.02295C19.9338 7.11585 20.1524 7.25667 20.3387 7.44156L28.7089 15.7482C29.0286 16.0656 29.2205 16.4867 29.2494 16.934L29.2954 17.6465H7.42736L16.5717 8.57164ZM30.2658 19.9016C31.8488 18.3305 31.8488 15.7742 30.2658 14.2031L21.8955 5.89653C21.2235 5.22954 20.333 4.81614 19.388 4.73241L18.7733 4.67792V1.09251C18.7733 0.49008 18.2795 0 17.6725 0C17.0655 0 16.5717 0.49008 16.5717 1.09251V5.51986L16.343 5.71983C16.2783 5.77657 16.2145 5.83592 16.1537 5.89632L6.10922 15.8645C5.3423 16.6256 4.91992 17.6374 4.91992 18.7137C4.91992 19.79 5.3423 20.8018 6.10915 21.5628L14.4794 29.8697C16.0625 31.4407 18.6383 31.4408 20.2214 29.8697L30.2658 19.9016Z" fill="#212121"/>
<mask id="mask0_0_348" style="mask-type:luminance" maskUnits="userSpaceOnUse" x="0" y="30" width="46" height="18">
<path fill-rule="evenodd" clip-rule="evenodd" d="M0 30.5434H46V48H0V30.5434Z" fill="white"/>
</mask>
<g mask="url(#mask0_0_348)">
<path fill-rule="evenodd" clip-rule="evenodd" d="M46 35.7474C46 33.56 44.6188 31.6321 42.6137 30.8789C42.6037 31.6444 42.5002 32.4047 42.3052 33.1475C43.2186 33.6818 43.7983 34.6609 43.7983 35.7474V42.7959C43.7983 44.4606 42.4336 45.815 40.7561 45.815H5.244C3.56648 45.815 2.20175 44.4606 2.20175 42.7959V35.7474C2.20175 34.0827 3.56648 32.7284 5.244 32.7284H12.1159C12.0263 32.6472 11.9382 32.5638 11.852 32.4782L9.90241 30.5434H5.244C2.35246 30.5434 0 32.8779 0 35.7474V42.7959C0 45.6655 2.35246 48 5.244 48H40.7561C43.6476 48 46 45.6655 46 42.7959V35.7474Z" fill="#212121"/>
</g>
<path fill-rule="evenodd" clip-rule="evenodd" d="M35.7879 33.1467C35.2276 33.7319 34.4498 34.0676 33.6541 34.0676C32.8583 34.0676 32.0806 33.7319 31.5203 33.1467C30.9345 32.5347 30.6119 31.6853 30.6119 30.7548C30.6119 30.1762 30.796 29.4851 31.1589 28.7004C31.4728 28.0215 31.9161 27.2844 32.4766 26.5095C32.6782 26.2309 32.8971 25.9449 33.1274 25.6594L33.6541 25.0064L34.1808 25.6594C34.4104 25.9441 34.6293 26.2301 34.8315 26.5094L34.8315 26.5095C35.3922 27.2847 35.8356 28.0219 36.1493 28.7006C36.5122 29.4851 36.6963 30.1762 36.6963 30.7548C36.6963 31.6853 36.3737 32.5347 35.7879 33.1467M38.1504 27.789C37.777 26.9819 37.262 26.1227 36.6198 25.2353C36.0598 24.4609 35.5024 23.8043 35.1316 23.3879L34.4247 22.6326C33.9962 22.2156 33.3064 22.2169 32.8796 22.6364L32.869 22.6474C32.7335 22.7895 32.3736 23.1671 32.1818 23.3822C31.8112 23.7979 31.2511 24.4572 30.6884 25.2351C30.0461 26.1227 29.5312 26.9819 29.1578 27.7891C28.6617 28.8617 28.4102 29.8595 28.4102 30.7548C28.4102 33.4573 30.3716 36.2526 33.6541 36.2526C36.2318 36.2526 38.898 34.1962 38.898 30.7548C38.898 29.8595 38.6464 28.8617 38.1504 27.789" fill="#212121"/>
</svg>
