<svg width="11" height="14" viewBox="0 0 11 14" fill="none" xmlns="http://www.w3.org/2000/svg">
<path fill-rule="evenodd" clip-rule="evenodd" d="M10.9871 8.41034C10.9858 8.39081 10.9844 8.37135 10.9828 8.35168C10.9743 8.23688 10.9626 8.12313 10.9475 8.01015C10.9462 8.00077 10.9452 7.99146 10.944 7.98222C10.9281 7.86903 10.9099 7.75647 10.8874 7.64538C10.2024 4.05745 6.66136 0.667196 2.89457 0.00436432C2.77599 -0.0164957 2.657 0.0386644 2.59482 0.143245C2.5327 0.247895 2.54008 0.380546 2.61357 0.477216C3.61947 1.80099 2.76586 3.69814 1.54935 4.8894C1.54955 4.88954 1.55064 4.88975 1.55064 4.88975C0.591484 5.89495 0 7.2643 0 8.77462C0 11.1481 1.45842 13.1749 3.51482 13.9833C3.6145 14.0225 3.72777 13.9907 3.79347 13.9051C3.85917 13.8195 3.862 13.7 3.80016 13.6115C3.44386 13.102 3.1737 12.4335 3.1737 11.5782C3.1737 8.68621 5.5 6.85137 5.5 6.85137C5.5 6.85137 7.82637 8.68614 7.82637 11.5782C7.82637 12.4335 7.55612 13.102 7.19984 13.6115C7.13794 13.7001 7.14055 13.8195 7.20632 13.9051C7.27209 13.9908 7.38543 14.0226 7.48518 13.9833C9.54151 13.1749 11 11.148 11 8.77462C11.0001 8.65205 10.9948 8.53095 10.9871 8.41034Z" fill="white"/>
</svg>
