<svg width="40" height="40" viewBox="0 0 40 40" fill="none" xmlns="http://www.w3.org/2000/svg">
<mask id="mask0_0_243" style="mask-type:luminance" maskUnits="userSpaceOnUse" x="0" y="0" width="40" height="40">
<path fill-rule="evenodd" clip-rule="evenodd" d="M0 0H40V40H0V0Z" fill="white"/>
</mask>
<g mask="url(#mask0_0_243)">
<path fill-rule="evenodd" clip-rule="evenodd" d="M7.52162 22.5208H20.001V27.5206H40L35.0003 17.5211L40 7.52155H25.0008V2.52178H7.52162V22.5208ZM0.00199753 37.5201C0.00199753 38.2134 0.241986 38.8001 0.721962 39.28C1.20194 39.76 1.80191 40 2.52187 40C3.24184 40 3.82846 39.76 4.28178 39.28C4.73511 38.8001 4.9751 38.2134 5.00175 37.5201V2.52178C5.00175 1.82847 4.76176 1.24184 4.28178 0.761867C3.80181 0.281889 3.21519 0.0285514 2.52187 0.00190262C1.82856 -0.0247461 1.22859 0.228542 0.721962 0.761867C0.215337 1.29519 -0.0246511 1.88181 0.00199753 2.52178V37.5201Z" fill="black"/>
</g>
</svg>
