<svg width="13" height="13" viewBox="0 0 13 13" fill="none" xmlns="http://www.w3.org/2000/svg">
<mask id="mask0_43_5071" style="mask-type:luminance" maskUnits="userSpaceOnUse" x="0" y="0" width="13" height="13">
<path fill-rule="evenodd" clip-rule="evenodd" d="M0 0H13V13H0V0Z" fill="white"/>
</mask>
<g mask="url(#mask0_43_5071)">
<path fill-rule="evenodd" clip-rule="evenodd" d="M2.44453 7.31927H6.50032V8.94419H13L11.3751 5.69435L13 2.4445H8.12524V0.819579H2.44453V7.31927ZM0.000649196 12.194C0.000649196 12.4194 0.0786453 12.61 0.234638 12.766C0.39063 12.922 0.58562 13 0.819608 13C1.0536 13 1.24425 12.922 1.39158 12.766C1.53891 12.61 1.61691 12.4194 1.62557 12.194V0.819579C1.62557 0.594251 1.54757 0.403599 1.39158 0.247607C1.23559 0.091614 1.04494 0.00927919 0.819608 0.000618352C0.594281 -0.00804249 0.399291 0.0742761 0.234638 0.247607C0.0699845 0.420937 -0.00801162 0.611589 0.000649196 0.819579V12.194Z" fill="#00FFDB"/>
</g>
</svg>
