<svg width="45" height="46" viewBox="0 0 45 46" fill="none" xmlns="http://www.w3.org/2000/svg">
<path fill-rule="evenodd" clip-rule="evenodd" d="M37.2228 15.3334H43.9184C44.4445 15.3334 44.8749 15.7646 44.875 16.2916V45.0416C44.875 45.5688 44.4446 46 43.9184 46H1.83155C1.30543 46 0.875 45.5688 0.875 45.0416V39.2916C0.875 38.7645 1.30543 38.3333 1.83155 38.3333H4.70111V25.8845L2.40546 27.6095C1.98462 27.9258 1.38202 27.8395 1.06636 27.4179C0.750712 26.9963 0.836799 26.3925 1.25764 26.0763L4.97848 23.2875L12.6306 17.547C12.6354 17.5422 12.6426 17.5374 12.6498 17.5326C12.6569 17.5279 12.6641 17.5231 12.6689 17.5183L20.2828 11.797C20.2946 11.7793 20.31 11.7689 20.3246 11.759C20.3337 11.7529 20.3425 11.7469 20.3498 11.7395L27.9255 6.04702C27.9372 6.03818 27.9481 6.02934 27.9586 6.02077C27.9822 6.00149 28.0042 5.98364 28.0307 5.97039L35.5776 0.297023L35.5778 0.296861C35.6255 0.258641 35.6734 0.220346 35.7211 0.191637H35.7307C35.8168 0.134137 35.9124 0.08625 36.008 0.0575C36.0649 0.0384486 36.1218 0.0289243 36.1787 0.0193994L36.1802 0.0191367L36.181 0.0188795C36.2094 0.00944096 36.2379 0 36.2663 0H43.9184C44.4445 0 44.8749 0.43125 44.875 0.958273C44.875 1.48539 44.4446 1.91664 43.9184 1.91664H37.2228V15.3334ZM35.3098 2.89414L29.5706 7.20664H29.5705V21.0833H33.3967V16.2916C33.3967 15.7645 33.8271 15.3333 34.3532 15.3333H35.3098V2.89414ZM21.9184 12.9566L27.6575 8.64414V21.0833H26.701C26.1749 21.0833 25.7444 21.5145 25.7444 22.0416V25.875H21.9183V12.9566H21.9184ZM20.0054 14.3846L14.2663 18.6971V32.5834H17.1358V26.8334C17.1358 26.3062 17.5663 25.875 18.0924 25.875H20.0054V14.3846ZM6.61413 24.4471L12.3533 20.1346V32.5834H10.4402C9.91412 32.5834 9.48369 33.0146 9.48369 33.5417V38.3334H6.61413V24.4471ZM2.78801 44.0834H42.9619V17.25H35.3098V22.0416C35.3098 22.5688 34.8793 23 34.3532 23H27.6576V26.8333C27.6576 27.3604 27.2272 27.7916 26.7011 27.7916H19.0489V33.5416C19.0489 34.0688 18.6185 34.5 18.0924 34.5H11.3967V39.2916C11.3967 39.8188 10.9663 40.25 10.4402 40.25H2.78801V44.0834Z" fill="black"/>
</svg>
