<svg width="71" height="71" viewBox="0 0 71 71" fill="none" xmlns="http://www.w3.org/2000/svg">
<path d="M24.961 19.9688C22.7866 19.9688 21.0781 21.716 21.0781 23.8516C21.0781 25.9871 22.8254 27.7344 24.961 27.7344C27.0966 27.7344 28.8438 25.9871 28.8438 23.8516C28.8438 21.716 27.0966 19.9688 24.961 19.9688Z" fill="#E52124"/>
<path fill-rule="evenodd" clip-rule="evenodd" d="M68.6232 10.7238C65.661 3.84505 59.1372 0 50.0392 0H20.4882C9.16857 0 0 9.17169 0 20.4952V50.0563C0 59.1574 3.84374 65.6834 10.7202 68.6466C11.3902 68.9288 12.166 68.7524 12.6597 68.2585L68.2353 12.664C68.7642 12.1349 68.9406 11.3588 68.6232 10.7238ZM30.0799 36.1223C28.7047 37.4628 26.9062 38.0978 25.1078 38.0978C23.3093 38.0978 21.5109 37.4275 20.1356 36.1223C16.5387 32.7359 12.5891 27.3387 14.1055 20.9185C15.4455 15.098 20.594 12.4876 25.1078 12.4876C29.6215 12.4876 34.77 15.098 36.11 20.9538C37.5911 27.3387 33.6416 32.7359 30.0799 36.1223Z" fill="url(#paint0_linear_0_198)"/>
<path fill-rule="evenodd" clip-rule="evenodd" d="M62.7127 65.6691C63.4984 66.4669 63.3913 67.7724 62.427 68.3164C59.2843 70.0934 55.4631 71 50.999 71H21.072C20.0363 71 19.6078 69.767 20.322 69.0417L41.8923 47.1377C42.6066 46.4124 43.7137 46.4124 44.4279 47.1377L62.7127 65.6691Z" fill="url(#paint1_linear_0_198)"/>
<path fill-rule="evenodd" clip-rule="evenodd" d="M71 21.0724V51.0096C71 55.4751 70.0947 59.3334 68.3204 62.4414C67.7772 63.406 66.4736 63.4775 65.677 62.7272L47.1369 44.4362C46.4127 43.7217 46.4127 42.6143 47.1369 41.8998L69.0084 20.3221C69.7688 19.6076 71 20.0363 71 21.0724Z" fill="url(#paint2_linear_0_198)"/>
<defs>
<linearGradient id="paint0_linear_0_198" x1="-17.1953" y1="23.182" x2="29.1688" y2="57.5727" gradientUnits="userSpaceOnUse">
<stop stop-color="#E52124"/>
<stop offset="1" stop-color="#FF6467"/>
</linearGradient>
<linearGradient id="paint1_linear_0_198" x1="39.8162" y1="80.6559" x2="61.0616" y2="56.8572" gradientUnits="userSpaceOnUse">
<stop stop-color="#FFB6B7"/>
<stop offset="1" stop-color="#FF3F43"/>
</linearGradient>
<linearGradient id="paint2_linear_0_198" x1="34.1386" y1="31.3379" x2="72.2029" y2="67.2727" gradientUnits="userSpaceOnUse">
<stop stop-color="#FB9FA1"/>
<stop offset="1" stop-color="#FF1C20"/>
</linearGradient>
</defs>
</svg>
