<svg width="16" height="18" viewBox="0 0 16 18" fill="none" xmlns="http://www.w3.org/2000/svg">
<mask id="mask0_0_386" style="mask-type:luminance" maskUnits="userSpaceOnUse" x="0" y="0" width="16" height="18">
<path fill-rule="evenodd" clip-rule="evenodd" d="M0 0H16V18H0V0Z" fill="white"/>
</mask>
<g mask="url(#mask0_0_386)">
<path fill-rule="evenodd" clip-rule="evenodd" d="M3.12752 12.4972L5.87743 14.5969C5.89552 14.6107 5.91277 14.6256 5.92903 14.6414L8.00005 16.66L10.071 14.6414C10.0873 14.6256 10.1045 14.6107 10.1226 14.5969L12.8724 12.4973C13.9763 11.4217 14.6691 9.98779 14.8239 8.45615C14.98 6.91308 14.5814 5.3588 13.7016 4.07968C12.9389 2.97143 11.8748 2.11997 10.6245 1.61737C8.93192 0.935357 7.06814 0.935325 5.376 1.61721C4.12517 2.11994 3.06107 2.97152 2.29845 4.07977C1.41863 5.3588 1.01999 6.91308 1.17606 8.45615C1.33094 9.98776 2.02361 11.4216 3.12752 12.4972M8.00005 18C7.84797 18 7.70219 17.9413 7.59495 17.8367L5.14316 15.4471L2.39403 13.348C2.37666 13.3347 2.3601 13.3205 2.34446 13.3054C1.03929 12.0461 0.220407 10.3623 0.0385452 8.56437C-0.143186 6.76717 0.321739 4.95603 1.3477 3.46452C1.34773 3.46449 1.34773 3.46446 1.34773 3.46446C2.23634 2.17302 3.47783 1.18021 4.93791 0.593335C5.91482 0.199689 6.94522 0 8.00002 0C9.05484 0 10.0852 0.199689 11.0626 0.593525C12.5221 1.18018 13.7636 2.17299 14.6523 3.46443C15.6783 4.95603 16.1432 6.76717 15.9615 8.56434C15.7796 10.3623 14.9607 12.0461 13.6556 13.3054C13.64 13.3205 13.6234 13.3347 13.6061 13.348L10.8568 15.4471L8.40512 17.8367C8.29787 17.9413 8.1521 18 8.00005 18" fill="white"/>
</g>
<path fill-rule="evenodd" clip-rule="evenodd" d="M6.14386 7.99611C6.14964 8.50665 6.35194 8.98386 6.71359 9.33995C7.06731 9.68818 7.5324 9.87934 8.02497 9.87934C8.03069 9.87934 8.03638 9.8793 8.0421 9.87924C9.0566 9.8559 9.86991 9.00227 9.85593 7.97437C9.84207 6.94967 9.01065 6.12066 8.00007 6.12066C7.99585 6.12066 7.99183 6.1207 7.98762 6.1207C6.97243 6.12755 6.14608 6.96856 6.14386 7.99611V7.99611ZM8.02458 11C7.22548 11 6.47306 10.6919 5.90276 10.1304C5.32891 9.56542 5.0083 8.8107 5.00003 8.00536C5 8.00344 5 8.00149 5 7.9996C5.00033 6.35674 6.33704 5.01114 7.97974 5.00006C7.98648 5.00003 7.99347 5 8.00017 5C9.63402 5 10.9775 6.32328 10.9997 7.95948C11.0105 8.75413 10.7131 9.50715 10.1623 10.0799C9.60774 10.6565 8.86188 10.9832 8.062 10.9998C8.05991 10.9998 8.05782 10.9998 8.05576 10.9999C8.04537 10.9999 8.03497 11 8.02458 11V11Z" fill="white"/>
</svg>
