<svg width="19" height="17" viewBox="0 0 19 17" fill="none" xmlns="http://www.w3.org/2000/svg">
<path fill-rule="evenodd" clip-rule="evenodd" d="M0 5.72711C0 9.63995 3.36965 13.3346 8.60795 16.6336C8.8996 16.8168 9.25585 17 9.5 17C9.74415 17 10.1004 16.8168 10.392 16.6336C15.6389 13.3346 19 9.63995 19 5.72711C19 2.346 16.606 0 13.5365 0C11.7439 0 10.3446 0.797111 9.5 2.00694C8.6735 0.806556 7.2656 0 5.472 0C2.394 0 0 2.346 0 5.72711ZM2 5.82863C2 3.54769 3.54348 2 5.61683 2C7.29207 2 8.23039 2.98701 8.81673 3.84715C9.07648 4.21751 9.25342 4.33506 9.49529 4.33506C9.74658 4.33506 9.90469 4.20818 10.1739 3.84621C10.8063 3.00474 11.7079 2 13.3738 2C15.4565 2 17 3.54862 17 5.82863C17 9.0145 13.5968 12.3748 9.67223 14.9095C9.58753 14.9636 9.532 15 9.49529 15C9.45765 15 9.40212 14.9636 9.32777 14.9095C5.40319 12.3748 2 9.0145 2 5.82863Z" fill="white"/>
</svg>
