<svg width="9" height="9" viewBox="0 0 9 9" fill="none" xmlns="http://www.w3.org/2000/svg">
<path fill-rule="evenodd" clip-rule="evenodd" d="M0 4.5C0 6.98528 2.01472 9 4.5 9C6.98528 9 9 6.98528 9 4.5C9 2.01472 6.98528 0 4.5 0C2.01472 0 0 2.01472 0 4.5ZM8.10352 4.5C8.10352 6.49017 6.49017 8.10352 4.5 8.10352C2.50983 8.10352 0.896484 6.49017 0.896484 4.5C0.896484 2.50983 2.50983 0.896484 4.5 0.896484C6.49017 0.896484 8.10352 2.50983 8.10352 4.5Z" fill="white"/>
<path fill-rule="evenodd" clip-rule="evenodd" d="M4.5 1.70508C4.30664 1.70508 4.14844 1.77539 4.02539 1.89844C3.88477 2.03906 3.83203 2.19727 3.83203 2.39062C3.83203 2.56641 3.88477 2.72461 4.02539 2.86523C4.14844 2.98828 4.30664 3.05859 4.5 3.05859C4.69336 3.05859 4.85156 2.98828 4.97461 2.86523C5.11523 2.72461 5.16797 2.56641 5.16797 2.39062C5.16797 2.19727 5.11523 2.03906 4.97461 1.89844C4.85156 1.77539 4.69336 1.70508 4.5 1.70508ZM5.08008 7.11914V3.74414H3.91992V7.11914H5.08008Z" fill="white"/>
</svg>
