<svg width="17" height="17" viewBox="0 0 17 17" fill="none" xmlns="http://www.w3.org/2000/svg">
<path fill-rule="evenodd" clip-rule="evenodd" d="M13.6 0C13.8254 0 14.0416 0.0895533 14.201 0.248959L16.751 2.79896C16.9104 2.95837 17 3.17457 17 3.4V8.5C17 8.72543 16.9104 8.94164 16.751 9.10104L14.201 11.651C14.0416 11.8104 13.8254 11.9 13.6 11.9H9.70208L4.85104 16.751C4.69164 16.9104 4.47543 17 4.25 17H0.85C0.380558 17 0 16.6194 0 16.15V12.75C0 12.5246 0.0895533 12.3084 0.248959 12.149L5.1 7.29792V3.4C5.1 3.17457 5.18955 2.95837 5.34896 2.79896L7.89896 0.248959C8.05836 0.0895533 8.27457 0 8.5 0H13.6ZM13.2479 1.7H8.85208L6.8 3.75208V7.65C6.8 7.87543 6.71045 8.09163 6.55104 8.25104L1.7 13.1021V15.3H3.89792L8.74896 10.449C8.90837 10.2896 9.12457 10.2 9.35 10.2H13.2479L15.3 8.14792V3.75208L13.2479 1.7ZM13.6 5.1C13.6 4.16112 12.8389 3.4 11.9 3.4C10.9611 3.4 10.2 4.16112 10.2 5.1C10.2 6.03888 10.9611 6.8 11.9 6.8C12.8389 6.8 13.6 6.03888 13.6 5.1Z" fill="white"/>
</svg>
