<svg width="17" height="17" viewBox="0 0 17 17" fill="none" xmlns="http://www.w3.org/2000/svg">
<path fill-rule="evenodd" clip-rule="evenodd" d="M17 5.84375C17 9.07117 14.3837 11.6875 11.1562 11.6875H7.4375V13.8125H5.3125V15.9375L4.25 17H0V12.75L5.48623 7.26377C5.37274 6.80917 5.3125 6.3335 5.3125 5.84375C5.3125 2.61633 7.92883 0 11.1562 0C14.3837 0 17 2.61633 17 5.84375ZM13.8125 4.25C13.8125 4.8368 13.3368 5.3125 12.75 5.3125C12.1632 5.3125 11.6875 4.8368 11.6875 4.25C11.6875 3.6632 12.1632 3.1875 12.75 3.1875C13.3368 3.1875 13.8125 3.6632 13.8125 4.25Z" fill="black"/>
</svg>
