<svg width="40" height="40" viewBox="0 0 40 40" fill="none" xmlns="http://www.w3.org/2000/svg">
<path fill-rule="evenodd" clip-rule="evenodd" d="M40 14.0625C40 6.29596 33.7041 0 25.9375 0C18.171 0 11.875 6.29599 11.875 14.0625L11.8836 14.5596C11.9066 15.2209 11.9755 15.8755 12.0892 16.52L12.166 16.919L0 29.0858V40H10.9142L13.875 37.0392V32.875H18.625V28.125H25.9375C33.7041 28.125 40 21.829 40 14.0625ZM13.875 14.0625C13.875 7.40056 19.2756 2 25.9375 2C32.5995 2 38 7.40053 38 14.0625C38 20.7245 32.5995 26.125 25.9375 26.125H16.625V30.875H11.875V36.209L10.084 38H2V29.914L13.9704 17.9438L14.3706 17.5436L14.2336 16.9945C13.9962 16.0438 13.875 15.0615 13.875 14.0625Z" fill="black"/>
<path fill-rule="evenodd" clip-rule="evenodd" d="M31.875 10.5C31.875 11.8117 30.8117 12.875 29.5 12.875C28.1883 12.875 27.125 11.8117 27.125 10.5C27.125 9.18833 28.1883 8.125 29.5 8.125C30.8117 8.125 31.875 9.18833 31.875 10.5Z" fill="black"/>
</svg>
