<svg width="103" height="38" viewBox="0 0 103 38" fill="none" xmlns="http://www.w3.org/2000/svg">
<path d="M46.6452 7.71733C47.0746 8.16569 47.6743 8.38975 48.4443 8.38975C49.2231 8.38975 49.7987 8.22119 50.1704 7.88357C50.5421 7.5462 50.7899 7.11119 50.9139 6.57855C50.9315 6.4899 50.9735 6.41873 51.0399 6.36554C51.1062 6.31235 51.1793 6.28563 51.2589 6.28563H51.8696C51.9493 6.28563 52.0177 6.31467 52.0754 6.37222C52.1327 6.43003 52.1617 6.49864 52.1617 6.57855C52.1437 7.01356 52.0023 7.46424 51.7369 7.93033C51.4713 8.39643 51.0619 8.7893 50.5088 9.10894C49.9555 9.42858 49.2674 9.5884 48.4441 9.5884C47.7007 9.5884 47.05 9.4332 46.4923 9.1223C45.9346 8.81165 45.5032 8.38333 45.1978 7.83706C44.8925 7.29106 44.7265 6.67182 44.6998 5.97935C44.6909 5.7129 44.6865 5.31798 44.6865 4.79407C44.6865 4.27042 44.6909 3.87524 44.6998 3.60878C44.7265 2.91632 44.8922 2.29708 45.1978 1.75108C45.5032 1.20507 45.9346 0.776743 46.4923 0.46584C47.0502 0.155451 47.7009 0 48.4443 0C49.2677 0 49.9558 0.159819 50.5091 0.479458C51.0622 0.799097 51.4718 1.19197 51.7372 1.65806C52.0029 2.12416 52.1443 2.57484 52.1619 3.00985C52.1619 3.08976 52.133 3.15862 52.0756 3.21617C52.018 3.27399 51.9496 3.30276 51.8699 3.30276H51.2592C51.1795 3.30276 51.1065 3.27604 51.0402 3.22285C50.9738 3.16967 50.9315 3.09849 50.9141 3.00985C50.7901 2.4772 50.5424 2.04219 50.1707 1.70483C49.799 1.36746 49.2234 1.1989 48.4446 1.1989C47.6745 1.1989 47.0748 1.42322 46.6455 1.87133C46.2161 2.31969 45.9881 2.9212 45.9618 3.67585C45.9528 3.9423 45.9484 4.31512 45.9484 4.79458C45.9484 5.27404 45.9528 5.64687 45.9618 5.91332C45.9881 6.66771 46.2159 7.26922 46.6452 7.71733Z" fill="#B20933"/>
<path fill-rule="evenodd" clip-rule="evenodd" d="M60.4274 1.7778C60.1397 1.23179 59.7214 0.799097 59.1727 0.479458C58.6237 0.159819 57.9732 0 57.2209 0C56.4685 0 55.8178 0.159819 55.2691 0.479458C54.7201 0.79884 54.3018 1.23179 54.0143 1.7778C53.7266 2.32381 53.574 2.93431 53.5563 3.60904C53.5473 3.87549 53.543 4.27067 53.543 4.79433C53.543 5.31824 53.5473 5.71316 53.5563 5.97961C53.5829 6.6546 53.74 7.26485 54.0277 7.81085C54.3151 8.35686 54.7314 8.78956 55.2757 9.10919C55.8201 9.42883 56.4685 9.58865 57.2209 9.58865C57.973 9.58865 58.6216 9.42883 59.166 9.10919C59.7104 8.78956 60.1264 8.35686 60.4141 7.81085C60.7015 7.26485 60.8588 6.65435 60.8854 5.97961C60.9031 5.44697 60.9121 5.05204 60.9121 4.79433C60.9121 4.53687 60.9031 4.14169 60.8854 3.60904C60.8675 2.93431 60.7151 2.32381 60.4274 1.7778ZM54.8177 3.67559C54.8441 2.85902 55.0744 2.24184 55.5081 1.82456C55.9418 1.40728 56.5125 1.19865 57.2209 1.19865C57.9289 1.19865 58.4999 1.40728 58.9336 1.82456C59.3671 2.24184 59.5974 2.85876 59.624 3.67559C59.6417 4.20849 59.6507 4.58132 59.6507 4.79433C59.6507 5.00759 59.6417 5.38042 59.624 5.91306C59.5976 6.72989 59.3673 7.34681 58.9336 7.76409C58.4999 8.18163 57.9289 8.39001 57.2209 8.39001C56.5125 8.39001 55.9415 8.18163 55.5081 7.76409C55.0744 7.34707 54.8443 6.72989 54.8177 5.91306C54.8087 5.64661 54.8044 5.27379 54.8044 4.79433C54.8044 4.31487 54.8087 3.94204 54.8177 3.67559Z" fill="#B20933"/>
<path d="M68.6389 9.34863C68.5592 9.27771 68.4796 9.18007 68.3999 9.05571L64.0849 2.54345V9.09554C64.0849 9.19343 64.0495 9.27771 63.9786 9.34863C63.9076 9.4198 63.8236 9.45526 63.7263 9.45526H63.1819C63.0843 9.45526 63.0003 9.4198 62.9296 9.34863C62.8586 9.27771 62.8232 9.19343 62.8232 9.09554V0.492779C62.8232 0.39514 62.8586 0.310862 62.9296 0.239689C63.0003 0.168772 63.0843 0.133057 63.1819 0.133057H63.6466C63.7616 0.133057 63.859 0.168515 63.9386 0.239689C64.0183 0.310862 64.098 0.408501 64.1776 0.532605L68.4929 7.04486V0.492779C68.4929 0.39514 68.5282 0.310862 68.5992 0.239689C68.6699 0.168772 68.7539 0.133057 68.8515 0.133057H69.3959C69.4932 0.133057 69.5773 0.168515 69.6482 0.239689C69.7189 0.310862 69.7545 0.39514 69.7545 0.492779V9.09579C69.7545 9.19369 69.7192 9.27797 69.6482 9.34888C69.5773 9.42006 69.4932 9.45551 69.3959 9.45551H68.9312C68.8159 9.45526 68.7186 9.4198 68.6389 9.34863Z" fill="#B20933"/>
<path d="M78.0395 0.239689C78.1102 0.310862 78.1458 0.39514 78.1458 0.492779V0.972237C78.1458 1.07013 78.1104 1.15441 78.0395 1.22533C77.9685 1.2965 77.8845 1.33196 77.7872 1.33196H75.3043V9.09579C75.3043 9.19369 75.269 9.27797 75.198 9.34888C75.127 9.42006 75.043 9.45551 74.9457 9.45551H74.4013C74.3037 9.45551 74.2197 9.42006 74.149 9.34888C74.078 9.27797 74.0427 9.19369 74.0427 9.09579V1.3317H71.5598C71.4625 1.3317 71.3784 1.29624 71.3075 1.22507C71.2365 1.15415 71.2012 1.06988 71.2012 0.97198V0.492779C71.2012 0.39514 71.2365 0.310862 71.3075 0.239689C71.3782 0.168772 71.4622 0.133057 71.5598 0.133057H77.7869C77.8845 0.133057 77.9685 0.168772 78.0395 0.239689Z" fill="#B20933"/>
<path fill-rule="evenodd" clip-rule="evenodd" d="M79.0091 9.12226L79.6995 7.35114H84.3065L84.9969 9.12226C85.0766 9.34426 85.249 9.45526 85.5147 9.45526H86.006C86.0857 9.45526 86.1541 9.42648 86.2117 9.36867C86.2691 9.31111 86.298 9.24225 86.298 9.16234C86.298 9.11789 86.2804 9.05571 86.245 8.9758L83.0054 0.572432C82.8904 0.279515 82.6911 0.133057 82.408 0.133057H81.6113C81.328 0.133057 81.129 0.279515 81.0139 0.572432L77.761 8.9758C77.7257 9.05571 77.708 9.11815 77.708 9.16234C77.708 9.24225 77.7367 9.31111 77.7943 9.36867C77.8517 9.42648 77.9204 9.45526 78 9.45526H78.4914C78.7568 9.45526 78.9294 9.34426 79.0091 9.12226ZM82.0097 1.39825L83.8421 6.15249H80.1642L82.0097 1.39825Z" fill="#B20933"/>
<path d="M89.1062 7.71733C89.5355 8.16569 90.1352 8.38975 90.9053 8.38975C91.684 8.38975 92.2597 8.22119 92.6314 7.88357C93.0031 7.5462 93.2508 7.11119 93.3748 6.57855C93.3925 6.4899 93.4345 6.41873 93.5008 6.36554C93.5672 6.31235 93.6402 6.28563 93.7199 6.28563H94.3306C94.4103 6.28563 94.4787 6.31467 94.5363 6.37222C94.5937 6.43003 94.6226 6.49864 94.6226 6.57855C94.6047 7.01356 94.4633 7.46424 94.1979 7.93033C93.9322 8.39643 93.5229 8.7893 92.9698 9.10894C92.4165 9.42858 91.7284 9.5884 90.905 9.5884C90.1616 9.5884 89.5109 9.4332 88.9532 9.1223C88.3955 8.81165 87.9641 8.38333 87.6588 7.83706C87.3534 7.29106 87.1874 6.67182 87.1608 5.97935C87.1518 5.7129 87.1475 5.31798 87.1475 4.79407C87.1475 4.27042 87.1518 3.87524 87.1608 3.60878C87.1874 2.91632 87.3532 2.29708 87.6588 1.75108C87.9641 1.20507 88.3955 0.776743 88.9532 0.46584C89.5112 0.155451 90.1616 0 90.9053 0C91.7286 0 92.4167 0.159819 92.97 0.479458C93.5231 0.799097 93.9327 1.19197 94.1981 1.65806C94.4638 2.12416 94.6052 2.57484 94.6229 3.00985C94.6229 3.08976 94.5939 3.15862 94.5365 3.21617C94.4789 3.27399 94.4105 3.30276 94.3308 3.30276H93.7201C93.6405 3.30276 93.5674 3.27604 93.5011 3.22285C93.4347 3.16967 93.3925 3.09849 93.3751 3.00985C93.2511 2.4772 93.0033 2.04219 92.6316 1.70483C92.2599 1.36746 91.6843 1.1989 90.9055 1.1989C90.1355 1.1989 89.5358 1.42322 89.1064 1.87133C88.6771 2.31969 88.4491 2.9212 88.4227 3.67585C88.4137 3.9423 88.4094 4.31512 88.4094 4.79458C88.4094 5.27404 88.4137 5.64687 88.4227 5.91332C88.4488 6.66771 88.6768 7.26922 89.1062 7.71733Z" fill="#B20933"/>
<path d="M102.364 0.239689C102.435 0.310862 102.47 0.39514 102.47 0.492779V0.972237C102.47 1.07013 102.435 1.15441 102.364 1.22533C102.293 1.2965 102.209 1.33196 102.111 1.33196H99.6285V9.09579C99.6285 9.19369 99.5932 9.27797 99.5222 9.34888C99.4513 9.42006 99.3672 9.45551 99.2699 9.45551H98.7255C98.6279 9.45551 98.5439 9.42006 98.4732 9.34888C98.4022 9.27797 98.3669 9.19369 98.3669 9.09579V1.3317H95.884C95.7867 1.3317 95.7027 1.29624 95.6317 1.22507C95.5607 1.15415 95.5254 1.06988 95.5254 0.97198V0.492779C95.5254 0.39514 95.5607 0.310862 95.6317 0.239689C95.7024 0.168772 95.7864 0.133057 95.884 0.133057H102.111C102.209 0.133057 102.293 0.168772 102.364 0.239689Z" fill="#B20933"/>
<path fill-rule="evenodd" clip-rule="evenodd" d="M51.8166 16.6513C51.8166 15.7278 51.5156 15.0377 50.9139 14.5803C50.3119 14.1232 49.5464 13.8945 48.6168 13.8943H45.4036C45.306 13.8943 45.2219 13.93 45.1512 14.0009C45.0803 14.0721 45.0449 14.1564 45.0449 14.254V22.857C45.0449 22.9549 45.0803 23.0392 45.1512 23.1101C45.2219 23.1813 45.306 23.2167 45.4036 23.2167H45.9479C46.0453 23.2167 46.1293 23.1813 46.2003 23.1101C46.2712 23.0392 46.3066 22.9549 46.3066 22.857V19.461H48.5904L50.5155 22.857C50.6485 23.0965 50.8386 23.2165 51.0865 23.2165H51.6575C51.7372 23.2165 51.8056 23.1877 51.8633 23.1299C51.9206 23.0723 51.9496 23.0035 51.9496 22.9236C51.9496 22.8794 51.9363 22.8303 51.9096 22.7771L49.9048 19.2747C50.4889 19.0884 50.9536 18.7775 51.2989 18.3425C51.644 17.9078 51.8166 17.3438 51.8166 16.6513ZM50.5555 16.6513C50.5555 17.7256 49.8871 18.2626 48.5507 18.2626H46.3068V15.0932H48.5507C49.2147 15.0932 49.7145 15.2152 50.0511 15.4593C50.3872 15.7037 50.5555 16.1009 50.5555 16.6513Z" fill="black"/>
<path d="M54.9499 22.0181H59.4112C59.5085 22.0181 59.5925 22.0536 59.6635 22.1247C59.7342 22.1959 59.7698 22.2802 59.7698 22.3778V22.8573C59.7698 22.9552 59.7344 23.0395 59.6635 23.1104C59.5925 23.1815 59.5085 23.217 59.4112 23.217H54.0471C53.9495 23.217 53.8655 23.1815 53.7948 23.1104C53.7238 23.0395 53.6885 22.9552 53.6885 22.8573V14.254C53.6885 14.1564 53.7238 14.0721 53.7948 14.0009C53.8655 13.93 53.9495 13.8943 54.0471 13.8943H59.3048C59.4022 13.8943 59.4862 13.9297 59.5572 14.0009C59.6279 14.0721 59.6635 14.1564 59.6635 14.254V14.7335C59.6635 14.8314 59.6281 14.9156 59.5572 14.9866C59.4862 15.0577 59.4022 15.0932 59.3048 15.0932H54.9499V17.9031H59.0128C59.1101 17.9031 59.1942 17.9388 59.2651 18.0098C59.3358 18.0809 59.3714 18.1652 59.3714 18.2629V18.7423C59.3714 18.8402 59.3361 18.9245 59.2651 18.9954C59.1942 19.0666 59.1101 19.102 59.0128 19.102H54.9499V22.0181Z" fill="black"/>
<path fill-rule="evenodd" clip-rule="evenodd" d="M61.9202 22.8835L62.6106 21.1124H67.2177L67.9081 22.8835C67.9877 23.1055 68.1601 23.2165 68.4258 23.2165H68.9171C68.9968 23.2165 69.0652 23.1877 69.1228 23.1299C69.1802 23.0723 69.2092 23.0035 69.2092 22.9236C69.2092 22.8791 69.1915 22.8169 69.1561 22.737L65.9166 14.3337C65.8015 14.0407 65.6022 13.8943 65.3192 13.8943H64.5225C64.2391 13.8943 64.0401 14.0407 63.9251 14.3337L60.6722 22.737C60.6368 22.8169 60.6191 22.8794 60.6191 22.9236C60.6191 23.0035 60.6478 23.0723 60.7055 23.1299C60.7629 23.1877 60.8315 23.2165 60.9112 23.2165H61.4025C61.6679 23.2165 61.8406 23.1055 61.9202 22.8835ZM64.9208 15.1597L66.7532 19.914H63.0753L64.9208 15.1597Z" fill="black"/>
<path d="M76.5921 22.1245C76.6628 22.1956 76.6984 22.2799 76.6984 22.3776V22.857C76.6984 22.9549 76.6631 23.0392 76.5921 23.1101C76.5212 23.1813 76.4371 23.2167 76.3398 23.2167H70.9358C70.8382 23.2167 70.7542 23.1813 70.6835 23.1101C70.6125 23.0392 70.5771 22.9549 70.5771 22.857V14.254C70.5771 14.1564 70.6125 14.0721 70.6835 14.0009C70.7542 13.93 70.8382 13.8943 70.9358 13.8943H71.4802C71.5775 13.8943 71.6615 13.9297 71.7325 14.0009C71.8032 14.0721 71.8388 14.1564 71.8388 14.254V22.0181H76.3398C76.4371 22.0181 76.5212 22.0536 76.5921 22.1245Z" fill="black"/>
<path d="M46.3063 35.7793H50.7676C50.8649 35.7793 50.949 35.815 51.0199 35.8859C51.0906 35.9571 51.1262 36.0414 51.1262 36.139V36.6185C51.1262 36.7164 51.0909 36.8007 51.0199 36.8716C50.949 36.9428 50.8649 36.9782 50.7676 36.9782H45.4036C45.306 36.9782 45.2219 36.9428 45.1512 36.8716C45.0803 36.8007 45.0449 36.7164 45.0449 36.6185V28.0155C45.0449 27.9178 45.0803 27.8336 45.1512 27.7624C45.2219 27.6915 45.306 27.6558 45.4036 27.6558H50.6613C50.7586 27.6558 50.8427 27.6915 50.9136 27.7624C50.9843 27.8336 51.0199 27.9178 51.0199 28.0155V28.4949C51.0199 28.5928 50.9846 28.6771 50.9136 28.748C50.8427 28.8192 50.7586 28.8547 50.6613 28.8547H46.3063V31.6646H50.3692C50.4666 31.6646 50.5506 31.7003 50.6216 31.7712C50.6923 31.8424 50.7279 31.9267 50.7279 32.0243V32.5038C50.7279 32.6017 50.6925 32.686 50.6216 32.7569C50.5506 32.8281 50.4666 32.8635 50.3692 32.8635H46.3063V35.7793Z" fill="black"/>
<path d="M59.0533 30.1393C58.9913 30.1971 58.9206 30.2259 58.841 30.2259H58.2966C58.1903 30.2259 58.1106 30.2058 58.0576 30.166C58.0045 30.1262 57.9467 30.0486 57.8849 29.933C57.7433 29.658 57.4976 29.387 57.1482 29.1205C56.7982 28.8541 56.3361 28.721 55.7607 28.721C55.2297 28.721 54.7803 28.8407 54.413 29.0804C54.0456 29.3202 53.862 29.6619 53.862 30.1059C53.862 30.4078 53.9526 30.6542 54.134 30.8449C54.3154 31.0358 54.5897 31.2 54.9574 31.3377C55.3245 31.4754 55.8801 31.6419 56.6238 31.8372C57.6328 32.1036 58.3476 32.4297 58.7679 32.8161C59.1883 33.2023 59.3986 33.7283 59.3986 34.3943C59.3986 34.9269 59.2503 35.3977 58.9539 35.8059C58.6573 36.2145 58.2389 36.5341 57.6992 36.7649C57.1592 36.9956 56.5351 37.1112 55.8271 37.1112C55.172 37.1112 54.5744 36.9869 54.0346 36.7384C53.4946 36.4899 53.0696 36.1723 52.7599 35.7862C52.4499 35.4 52.2862 35.0161 52.2686 34.6343C52.2686 34.5544 52.2972 34.4858 52.3549 34.428C52.4123 34.3704 52.4809 34.3414 52.5606 34.3414H53.105C53.2023 34.3414 53.282 34.3614 53.344 34.4012C53.4057 34.4413 53.4634 34.5189 53.5166 34.6343C53.658 34.9539 53.917 35.2468 54.2934 35.5133C54.6694 35.7797 55.1807 35.9128 55.8268 35.9128C56.4729 35.9128 57.0196 35.7731 57.4666 35.4932C57.9134 35.2137 58.137 34.8473 58.137 34.3945C58.137 34.1016 58.0197 33.8552 57.785 33.6556C57.5504 33.4557 57.2294 33.2874 56.8223 33.1494C56.415 33.0119 55.8176 32.8411 55.0299 32.6368C54.1712 32.415 53.5515 32.0931 53.1711 31.6712C52.7904 31.2495 52.6 30.728 52.6 30.1064C52.6 29.6449 52.7197 29.2187 52.9584 28.8278C53.1974 28.4373 53.5558 28.122 54.0339 27.8823C54.5119 27.6426 55.0872 27.5228 55.76 27.5228C56.4327 27.5228 57.0214 27.6539 57.5258 27.9157C58.0304 28.1778 58.4198 28.4995 58.6942 28.8813C58.9685 29.2631 59.1146 29.6138 59.1322 29.9332C59.1417 30.0129 59.1151 30.0817 59.0533 30.1393Z" fill="black"/>
<path d="M66.9926 27.7624C67.0633 27.8336 67.0989 27.9178 67.0989 28.0155V28.4949C67.0989 28.5928 67.0636 28.6771 66.9926 28.748C66.9216 28.8192 66.8376 28.8547 66.7403 28.8547H64.2574V36.6188C64.2574 36.7166 64.2221 36.8009 64.1511 36.8718C64.0802 36.943 63.9961 36.9785 63.8988 36.9785H63.3544C63.2568 36.9785 63.1728 36.943 63.1021 36.8718C63.0311 36.8009 62.9958 36.7166 62.9958 36.6188V28.8547H60.5129C60.4156 28.8547 60.3316 28.8192 60.2606 28.748C60.1896 28.6771 60.1543 28.5928 60.1543 28.4949V28.0155C60.1543 27.9178 60.1896 27.8336 60.2606 27.7624C60.3313 27.6915 60.4153 27.6558 60.5129 27.6558H66.74C66.8376 27.6558 66.9216 27.6915 66.9926 27.7624Z" fill="black"/>
<path fill-rule="evenodd" clip-rule="evenodd" d="M67.9622 36.645L68.6526 34.8738H73.2597L73.9501 36.645C74.0297 36.867 74.2021 36.978 74.4678 36.978H74.9591C75.0388 36.978 75.1072 36.9492 75.1648 36.8914C75.2222 36.8338 75.2512 36.765 75.2512 36.685C75.2512 36.6406 75.2335 36.5784 75.1981 36.4985L71.9586 28.0951C71.8435 27.8022 71.6442 27.6558 71.3612 27.6558H70.5645C70.2811 27.6558 70.0821 27.8022 69.9671 28.0951L66.7142 36.4985C66.6788 36.5784 66.6611 36.6406 66.6611 36.685C66.6611 36.765 66.6898 36.8338 66.7475 36.8914C66.8048 36.9492 66.8735 36.978 66.9532 36.978H67.4445C67.7099 36.978 67.8826 36.867 67.9622 36.645ZM70.9628 28.921L72.7952 33.6752H69.1173L70.9628 28.921Z" fill="black"/>
<path d="M81.6645 27.7624C81.7352 27.8336 81.7708 27.9178 81.7708 28.0155V28.4949C81.7708 28.5928 81.7354 28.6771 81.6645 28.748C81.5935 28.8192 81.5095 28.8547 81.4122 28.8547H78.9293V36.6188C78.9293 36.7166 78.894 36.8009 78.823 36.8718C78.752 36.943 78.668 36.9785 78.5707 36.9785H78.0263C77.9287 36.9785 77.8447 36.943 77.774 36.8718C77.703 36.8009 77.6677 36.7166 77.6677 36.6188V28.8547H75.1848C75.0875 28.8547 75.0034 28.8192 74.9325 28.748C74.8615 28.6771 74.8262 28.5928 74.8262 28.4949V28.0155C74.8262 27.9178 74.8615 27.8336 74.9325 27.7624C75.0032 27.6915 75.0872 27.6558 75.1848 27.6558H81.4122C81.5095 27.6558 81.5935 27.6915 81.6645 27.7624Z" fill="black"/>
<path d="M84.4792 35.7793H88.9405C89.0378 35.7793 89.1218 35.815 89.1928 35.8859C89.2635 35.9571 89.2991 36.0414 89.2991 36.139V36.6185C89.2991 36.7164 89.2637 36.8007 89.1928 36.8716C89.1218 36.9428 89.0378 36.9782 88.9405 36.9782H83.5764C83.4788 36.9782 83.3948 36.9428 83.3241 36.8716C83.2531 36.8007 83.2178 36.7164 83.2178 36.6185V28.0155C83.2178 27.9178 83.2531 27.8336 83.3241 27.7624C83.3948 27.6915 83.4788 27.6558 83.5764 27.6558H88.8341C88.9315 27.6558 89.0155 27.6915 89.0865 27.7624C89.1572 27.8336 89.1928 27.9178 89.1928 28.0155V28.4949C89.1928 28.5928 89.1574 28.6771 89.0865 28.748C89.0155 28.8192 88.9315 28.8547 88.8341 28.8547H84.4792V31.6646H88.5421C88.6394 31.6646 88.7235 31.7003 88.7944 31.7712C88.8651 31.8424 88.9007 31.9267 88.9007 32.0243V32.5038C88.9007 32.6017 88.8654 32.686 88.7944 32.7569C88.7235 32.8281 88.6394 32.8635 88.5421 32.8635H84.4792V35.7793Z" fill="black"/>
<path d="M28.548 22.6851V28.7128H8.23446V8.39851H28.548V14.4259H36.7825V1.0594V0.139282H0V36.972H36.7825V22.6851H28.548Z" fill="#B20933"/>
</svg>
