<svg width="101" height="37" viewBox="0 0 101 37" fill="none" xmlns="http://www.w3.org/2000/svg">
<path d="M46.3685 7.50875C46.7875 7.945 47.3728 8.163 48.1243 8.163C48.8843 8.163 49.446 7.999 49.8088 7.6705C50.1715 7.34225 50.4133 6.919 50.5343 6.40075C50.5515 6.3145 50.5925 6.24525 50.6573 6.1935C50.722 6.14175 50.7933 6.11575 50.871 6.11575H51.467C51.5448 6.11575 51.6115 6.144 51.6678 6.2C51.7238 6.25625 51.752 6.323 51.752 6.40075C51.7345 6.824 51.5965 7.2625 51.3375 7.716C51.0783 8.1695 50.6788 8.55175 50.139 8.86275C49.599 9.17375 48.9275 9.32925 48.124 9.32925C47.3985 9.32925 46.7635 9.17825 46.2193 8.87575C45.675 8.5735 45.254 8.15675 44.956 7.62525C44.658 7.094 44.496 6.4915 44.47 5.81775C44.4613 5.5585 44.457 5.17425 44.457 4.6645C44.457 4.155 44.4613 3.7705 44.47 3.51125C44.496 2.8375 44.6578 2.235 44.956 1.70375C45.254 1.1725 45.675 0.75575 46.2193 0.45325C46.7638 0.15125 47.3988 0 48.1243 0C48.9278 0 49.5993 0.1555 50.1393 0.4665C50.679 0.7775 51.0788 1.15975 51.3378 1.61325C51.597 2.06675 51.735 2.50525 51.7523 2.9285C51.7523 3.00625 51.724 3.07325 51.668 3.12925C51.6118 3.1855 51.545 3.2135 51.4673 3.2135H50.8713C50.7935 3.2135 50.7223 3.1875 50.6575 3.13575C50.5928 3.084 50.5515 3.01475 50.5345 2.9285C50.4135 2.41025 50.1718 1.987 49.809 1.65875C49.4463 1.3305 48.8845 1.1665 48.1245 1.1665C47.373 1.1665 46.7878 1.38475 46.3688 1.82075C45.9498 2.257 45.7273 2.84225 45.7015 3.5765C45.6928 3.83575 45.6885 4.1985 45.6885 4.665C45.6885 5.1315 45.6928 5.49425 45.7015 5.7535C45.7273 6.4875 45.9495 7.07275 46.3685 7.50875Z" fill="white"/>
<path fill-rule="evenodd" clip-rule="evenodd" d="M59.8181 1.72975C59.5374 1.1985 59.1291 0.7775 58.5936 0.4665C58.0579 0.1555 57.4231 0 56.6889 0C55.9546 0 55.3196 0.1555 54.7841 0.4665C54.2484 0.77725 53.8401 1.1985 53.5596 1.72975C53.2789 2.261 53.1299 2.855 53.1126 3.5115C53.1039 3.77075 53.0996 4.15525 53.0996 4.66475C53.0996 5.1745 53.1039 5.55875 53.1126 5.818C53.1386 6.47475 53.2919 7.0685 53.5726 7.59975C53.8531 8.131 54.2594 8.552 54.7906 8.863C55.3219 9.174 55.9546 9.3295 56.6889 9.3295C57.4229 9.3295 58.0559 9.174 58.5871 8.863C59.1184 8.552 59.5244 8.131 59.8051 7.59975C60.0856 7.0685 60.2391 6.4745 60.2651 5.818C60.2824 5.29975 60.2911 4.9155 60.2911 4.66475C60.2911 4.41425 60.2824 4.02975 60.2651 3.5115C60.2476 2.855 60.0989 2.261 59.8181 1.72975ZM54.3436 3.57625C54.3694 2.78175 54.5941 2.18125 55.0174 1.77525C55.4406 1.36925 55.9976 1.16625 56.6889 1.16625C57.3799 1.16625 57.9371 1.36925 58.3604 1.77525C58.7834 2.18125 59.0081 2.7815 59.0341 3.57625C59.0514 4.09475 59.0601 4.4575 59.0601 4.66475C59.0601 4.87225 59.0514 5.235 59.0341 5.75325C59.0084 6.548 58.7836 7.14825 58.3604 7.55425C57.9371 7.9605 57.3799 8.16325 56.6889 8.16325C55.9976 8.16325 55.4404 7.9605 55.0174 7.55425C54.5941 7.1485 54.3696 6.548 54.3436 5.75325C54.3349 5.494 54.3306 5.13125 54.3306 4.66475C54.3306 4.19825 54.3349 3.8355 54.3436 3.57625Z" fill="white"/>
<path d="M67.8327 9.09589C67.755 9.02689 67.6772 8.93189 67.5995 8.81089L63.3885 2.47464V8.84964C63.3885 8.94489 63.354 9.02689 63.2847 9.09589C63.2155 9.16514 63.1335 9.19964 63.0385 9.19964H62.5072C62.412 9.19964 62.33 9.16514 62.261 9.09589C62.1917 9.02689 62.1572 8.94489 62.1572 8.84964V0.479395C62.1572 0.384395 62.1917 0.302395 62.261 0.233145C62.33 0.164145 62.412 0.129395 62.5072 0.129395H62.9607C63.073 0.129395 63.168 0.163895 63.2457 0.233145C63.3235 0.302395 63.4012 0.397395 63.479 0.518145L67.6902 6.85439V0.479395C67.6902 0.384395 67.7247 0.302395 67.794 0.233145C67.863 0.164145 67.945 0.129395 68.0402 0.129395H68.5715C68.6665 0.129395 68.7485 0.163895 68.8177 0.233145C68.8867 0.302395 68.9215 0.384395 68.9215 0.479395V8.84989C68.9215 8.94514 68.887 9.02714 68.8177 9.09614C68.7485 9.16539 68.6665 9.19989 68.5715 9.19989H68.118C68.0055 9.19964 67.9105 9.16514 67.8327 9.09589Z" fill="white"/>
<path d="M77.0065 0.233145C77.0755 0.302395 77.1103 0.384395 77.1103 0.479395V0.945895C77.1103 1.04114 77.0758 1.12314 77.0065 1.19214C76.9373 1.26139 76.8553 1.29589 76.7603 1.29589H74.3373V8.84989C74.3373 8.94514 74.3028 9.02714 74.2335 9.09614C74.1643 9.16539 74.0823 9.19989 73.9873 9.19989H73.456C73.3608 9.19989 73.2788 9.16539 73.2098 9.09614C73.1405 9.02714 73.106 8.94514 73.106 8.84989V1.29564H70.683C70.588 1.29564 70.506 1.26114 70.4368 1.19189C70.3675 1.12289 70.333 1.04089 70.333 0.945645V0.479395C70.333 0.384395 70.3675 0.302395 70.4368 0.233145C70.5058 0.164145 70.5878 0.129395 70.683 0.129395H76.76C76.8553 0.129395 76.9373 0.164145 77.0065 0.233145Z" fill="white"/>
<path fill-rule="evenodd" clip-rule="evenodd" d="M77.9524 8.87564L78.6261 7.15239H83.1221L83.7959 8.87564C83.8736 9.09164 84.0419 9.19964 84.3011 9.19964H84.7806C84.8584 9.19964 84.9251 9.17164 84.9814 9.11539C85.0374 9.05939 85.0656 8.99239 85.0656 8.91464C85.0656 8.87139 85.0484 8.81089 85.0139 8.73314L81.8524 0.556895C81.7401 0.271895 81.5456 0.129395 81.2694 0.129395H80.4919C80.2154 0.129395 80.0211 0.271895 79.9089 0.556895L76.7344 8.73314C76.6999 8.81089 76.6826 8.87164 76.6826 8.91464C76.6826 8.99239 76.7106 9.05939 76.7669 9.11539C76.8229 9.17164 76.8899 9.19964 76.9676 9.19964H77.4471C77.7061 9.19964 77.8746 9.09164 77.9524 8.87564ZM80.8806 1.36039L82.6689 5.98614H79.0796L80.8806 1.36039Z" fill="white"/>
<path d="M87.806 7.50875C88.225 7.945 88.8103 8.163 89.5618 8.163C90.3218 8.163 90.8835 7.999 91.2463 7.6705C91.609 7.34225 91.8508 6.919 91.9718 6.40075C91.989 6.3145 92.03 6.24525 92.0948 6.1935C92.1595 6.14175 92.2308 6.11575 92.3085 6.11575H92.9045C92.9823 6.11575 93.049 6.144 93.1053 6.2C93.1613 6.25625 93.1895 6.323 93.1895 6.40075C93.172 6.824 93.034 7.2625 92.775 7.716C92.5158 8.1695 92.1163 8.55175 91.5765 8.86275C91.0365 9.17375 90.365 9.32925 89.5615 9.32925C88.836 9.32925 88.201 9.17825 87.6568 8.87575C87.1125 8.5735 86.6915 8.15675 86.3935 7.62525C86.0955 7.094 85.9335 6.4915 85.9075 5.81775C85.8988 5.5585 85.8945 5.17425 85.8945 4.6645C85.8945 4.155 85.8988 3.7705 85.9075 3.51125C85.9335 2.8375 86.0953 2.235 86.3935 1.70375C86.6915 1.1725 87.1125 0.75575 87.6568 0.45325C88.2013 0.15125 88.836 0 89.5618 0C90.3653 0 91.0368 0.1555 91.5768 0.4665C92.1165 0.7775 92.5163 1.15975 92.7753 1.61325C93.0345 2.06675 93.1725 2.50525 93.1898 2.9285C93.1898 3.00625 93.1615 3.07325 93.1055 3.12925C93.0493 3.1855 92.9825 3.2135 92.9048 3.2135H92.3088C92.231 3.2135 92.1598 3.1875 92.095 3.13575C92.0303 3.084 91.989 3.01475 91.972 2.9285C91.851 2.41025 91.6093 1.987 91.2465 1.65875C90.8838 1.3305 90.322 1.1665 89.562 1.1665C88.8105 1.1665 88.2253 1.38475 87.8063 1.82075C87.3873 2.257 87.1648 2.84225 87.139 3.5765C87.1303 3.83575 87.126 4.1985 87.126 4.665C87.126 5.1315 87.1303 5.49425 87.139 5.7535C87.1645 6.4875 87.387 7.07275 87.806 7.50875Z" fill="white"/>
<path d="M100.744 0.233145C100.813 0.302395 100.848 0.384395 100.848 0.479395V0.945895C100.848 1.04114 100.813 1.12314 100.744 1.19214C100.675 1.26139 100.593 1.29589 100.498 1.29589H98.0746V8.84989C98.0746 8.94514 98.0401 9.02714 97.9708 9.09614C97.9016 9.16539 97.8196 9.19989 97.7246 9.19989H97.1933C97.0981 9.19989 97.0161 9.16539 96.9471 9.09614C96.8778 9.02714 96.8433 8.94514 96.8433 8.84989V1.29564H94.4203C94.3253 1.29564 94.2433 1.26114 94.1741 1.19189C94.1048 1.12289 94.0703 1.04089 94.0703 0.945645V0.479395C94.0703 0.384395 94.1048 0.302395 94.1741 0.233145C94.2431 0.164145 94.3251 0.129395 94.4203 0.129395H100.497C100.593 0.129395 100.675 0.164145 100.744 0.233145Z" fill="white"/>
<path fill-rule="evenodd" clip-rule="evenodd" d="M51.4151 16.2011C51.4151 15.3026 51.1214 14.6311 50.5341 14.1861C49.9466 13.7413 49.1996 13.5188 48.2924 13.5186H45.1566C45.0614 13.5186 44.9794 13.5533 44.9104 13.6223C44.8411 13.6916 44.8066 13.7736 44.8066 13.8686V22.2391C44.8066 22.3343 44.8411 22.4163 44.9104 22.4853C44.9794 22.5546 45.0614 22.5891 45.1566 22.5891H45.6879C45.7829 22.5891 45.8649 22.5546 45.9341 22.4853C46.0034 22.4163 46.0379 22.3343 46.0379 22.2391V18.9348H48.2666L50.1454 22.2391C50.2751 22.4721 50.4606 22.5888 50.7026 22.5888H51.2599C51.3376 22.5888 51.4044 22.5608 51.4606 22.5046C51.5166 22.4486 51.5449 22.3816 51.5449 22.3038C51.5449 22.2608 51.5319 22.2131 51.5059 22.1613L49.5494 18.7536C50.1194 18.5723 50.5729 18.2698 50.9099 17.8466C51.2466 17.4236 51.4151 16.8748 51.4151 16.2011ZM50.1844 16.2011C50.1844 17.2463 49.5321 17.7688 48.2279 17.7688H46.0381V14.6851H48.2279C48.8759 14.6851 49.3636 14.8038 49.6921 15.0413C50.0201 15.2791 50.1844 15.6656 50.1844 16.2011Z" fill="white"/>
<path d="M54.4732 21.4228H58.8269C58.9219 21.4228 59.0039 21.4573 59.0732 21.5266C59.1422 21.5958 59.1769 21.6778 59.1769 21.7728V22.2393C59.1769 22.3346 59.1424 22.4166 59.0732 22.4856C59.0039 22.5548 58.9219 22.5893 58.8269 22.5893H53.5922C53.4969 22.5893 53.4149 22.5548 53.3459 22.4856C53.2767 22.4166 53.2422 22.3346 53.2422 22.2393V13.8686C53.2422 13.7736 53.2767 13.6916 53.3459 13.6223C53.4149 13.5533 53.4969 13.5186 53.5922 13.5186H58.7232C58.8182 13.5186 58.9002 13.5531 58.9694 13.6223C59.0384 13.6916 59.0732 13.7736 59.0732 13.8686V14.3351C59.0732 14.4303 59.0387 14.5123 58.9694 14.5813C58.9002 14.6506 58.8182 14.6851 58.7232 14.6851H54.4732V17.4191H58.4382C58.5332 17.4191 58.6152 17.4538 58.6844 17.5228C58.7534 17.5921 58.7882 17.6741 58.7882 17.7691V18.2356C58.7882 18.3308 58.7537 18.4128 58.6844 18.4818C58.6152 18.5511 58.5332 18.5856 58.4382 18.5856H54.4732V21.4228Z" fill="white"/>
<path fill-rule="evenodd" clip-rule="evenodd" d="M61.2756 22.2648L61.9494 20.5416H66.4454L67.1191 22.2648C67.1969 22.4808 67.3651 22.5888 67.6244 22.5888H68.1039C68.1816 22.5888 68.2484 22.5608 68.3046 22.5046C68.3606 22.4486 68.3889 22.3816 68.3889 22.3038C68.3889 22.2606 68.3716 22.2001 68.3371 22.1223L65.1756 13.9461C65.0634 13.6611 64.8689 13.5186 64.5926 13.5186H63.8151C63.5386 13.5186 63.3444 13.6611 63.2321 13.9461L60.0576 22.1223C60.0231 22.2001 60.0059 22.2608 60.0059 22.3038C60.0059 22.3816 60.0339 22.4486 60.0901 22.5046C60.1461 22.5608 60.2131 22.5888 60.2909 22.5888H60.7704C61.0294 22.5888 61.1979 22.4808 61.2756 22.2648ZM64.2039 14.7498L65.9921 19.3756H62.4029L64.2039 14.7498Z" fill="white"/>
<path d="M75.5936 21.5263C75.6626 21.5956 75.6974 21.6776 75.6974 21.7726V22.2391C75.6974 22.3343 75.6629 22.4163 75.5936 22.4853C75.5244 22.5546 75.4424 22.5891 75.3474 22.5891H70.0736C69.9784 22.5891 69.8964 22.5546 69.8274 22.4853C69.7581 22.4163 69.7236 22.3343 69.7236 22.2391V13.8686C69.7236 13.7736 69.7581 13.6916 69.8274 13.6223C69.8964 13.5533 69.9784 13.5186 70.0736 13.5186H70.6049C70.6999 13.5186 70.7819 13.5531 70.8511 13.6223C70.9201 13.6916 70.9549 13.7736 70.9549 13.8686V21.4228H75.3474C75.4424 21.4228 75.5244 21.4573 75.5936 21.5263Z" fill="white"/>
<path d="M46.0376 34.8122H50.3914C50.4864 34.8122 50.5684 34.847 50.6376 34.916C50.7066 34.9852 50.7414 35.0672 50.7414 35.1622V35.6287C50.7414 35.724 50.7069 35.806 50.6376 35.875C50.5684 35.9442 50.4864 35.9787 50.3914 35.9787H45.1566C45.0614 35.9787 44.9794 35.9442 44.9104 35.875C44.8411 35.806 44.8066 35.724 44.8066 35.6287V27.2582C44.8066 27.1632 44.8411 27.0812 44.9104 27.012C44.9794 26.943 45.0614 26.9082 45.1566 26.9082H50.2876C50.3826 26.9082 50.4646 26.943 50.5339 27.012C50.6029 27.0812 50.6376 27.1632 50.6376 27.2582V27.7247C50.6376 27.82 50.6031 27.902 50.5339 27.971C50.4646 28.0402 50.3826 28.0747 50.2876 28.0747H46.0376V30.8087H50.0026C50.0976 30.8087 50.1796 30.8435 50.2489 30.9125C50.3179 30.9817 50.3526 31.0637 50.3526 31.1587V31.6252C50.3526 31.7205 50.3181 31.8025 50.2489 31.8715C50.1796 31.9407 50.0976 31.9752 50.0026 31.9752H46.0376V34.8122Z" fill="white"/>
<path d="M58.4777 29.3246C58.4172 29.3808 58.3482 29.4088 58.2704 29.4088H57.7392C57.6354 29.4088 57.5577 29.3893 57.5059 29.3506C57.4542 29.3118 57.3977 29.2363 57.3374 29.1238C57.1992 28.8563 56.9594 28.5926 56.6184 28.3333C56.2769 28.0741 55.8259 27.9446 55.2644 27.9446C54.7462 27.9446 54.3077 28.0611 53.9492 28.2943C53.5907 28.5276 53.4114 28.8601 53.4114 29.2921C53.4114 29.5858 53.4999 29.8256 53.6769 30.0111C53.8539 30.1968 54.1217 30.3566 54.4804 30.4906C54.8387 30.6246 55.3809 30.7866 56.1067 30.9766C57.0914 31.2358 57.7889 31.5531 58.1992 31.9291C58.6094 32.3048 58.8147 32.8166 58.8147 33.4646C58.8147 33.9828 58.6699 34.4408 58.3807 34.8381C58.0912 35.2356 57.6829 35.5466 57.1562 35.7711C56.6292 35.9956 56.0202 36.1081 55.3292 36.1081C54.6899 36.1081 54.1067 35.9871 53.5799 35.7453C53.0529 35.5036 52.6382 35.1946 52.3359 34.8188C52.0334 34.4431 51.8737 34.0696 51.8564 33.6981C51.8564 33.6203 51.8844 33.5536 51.9407 33.4973C51.9967 33.4413 52.0637 33.4131 52.1414 33.4131H52.6727C52.7677 33.4131 52.8454 33.4326 52.9059 33.4713C52.9662 33.5103 53.0224 33.5858 53.0744 33.6981C53.2124 34.0091 53.4652 34.2941 53.8324 34.5533C54.1994 34.8126 54.6984 34.9421 55.3289 34.9421C55.9594 34.9421 56.4929 34.8061 56.9292 34.5338C57.3652 34.2618 57.5834 33.9053 57.5834 33.4648C57.5834 33.1798 57.4689 32.9401 57.2399 32.7458C57.0109 32.5513 56.6977 32.3876 56.3004 32.2533C55.9029 32.1196 55.3199 31.9533 54.5512 31.7546C53.7132 31.5388 53.1084 31.2256 52.7372 30.8151C52.3657 30.4048 52.1799 29.8973 52.1799 29.2926C52.1799 28.8436 52.2967 28.4288 52.5297 28.0486C52.7629 27.6686 53.1127 27.3618 53.5792 27.1286C54.0457 26.8953 54.6072 26.7788 55.2637 26.7788C55.9202 26.7788 56.4947 26.9063 56.9869 27.1611C57.4794 27.4161 57.8594 27.7291 58.1272 28.1006C58.3949 28.4721 58.5374 28.8133 58.5547 29.1241C58.5639 29.2016 58.5379 29.2686 58.4777 29.3246Z" fill="white"/>
<path d="M66.2262 27.012C66.2952 27.0812 66.33 27.1632 66.33 27.2582V27.7247C66.33 27.82 66.2955 27.902 66.2262 27.971C66.157 28.0402 66.075 28.0747 65.98 28.0747H63.557V35.629C63.557 35.7242 63.5225 35.8062 63.4532 35.8752C63.384 35.9445 63.302 35.979 63.207 35.979H62.6757C62.5805 35.979 62.4985 35.9445 62.4295 35.8752C62.3602 35.8062 62.3257 35.7242 62.3257 35.629V28.0747H59.9027C59.8077 28.0747 59.7257 28.0402 59.6565 27.971C59.5872 27.902 59.5527 27.82 59.5527 27.7247V27.2582C59.5527 27.1632 59.5872 27.0812 59.6565 27.012C59.7255 26.943 59.8075 26.9082 59.9027 26.9082H65.9797C66.075 26.9082 66.157 26.943 66.2262 27.012Z" fill="white"/>
<path fill-rule="evenodd" clip-rule="evenodd" d="M67.1721 35.6545L67.8458 33.9312H72.3418L73.0156 35.6545C73.0933 35.8705 73.2616 35.9785 73.5208 35.9785H74.0003C74.0781 35.9785 74.1448 35.9505 74.2011 35.8942C74.2571 35.8382 74.2853 35.7712 74.2853 35.6935C74.2853 35.6502 74.2681 35.5897 74.2336 35.512L71.0721 27.3357C70.9598 27.0507 70.7653 26.9082 70.4891 26.9082H69.7116C69.4351 26.9082 69.2408 27.0507 69.1286 27.3357L65.9541 35.512C65.9196 35.5897 65.9023 35.6502 65.9023 35.6935C65.9023 35.7712 65.9303 35.8382 65.9866 35.8942C66.0426 35.9505 66.1096 35.9785 66.1873 35.9785H66.6668C66.9258 35.9785 67.0943 35.8705 67.1721 35.6545ZM70.1003 28.1392L71.8886 32.765H68.2993L70.1003 28.1392Z" fill="white"/>
<path d="M80.5436 27.012C80.6126 27.0812 80.6474 27.1632 80.6474 27.2582V27.7247C80.6474 27.82 80.6129 27.902 80.5436 27.971C80.4744 28.0402 80.3924 28.0747 80.2974 28.0747H77.8744V35.629C77.8744 35.7242 77.8399 35.8062 77.7706 35.8752C77.7014 35.9445 77.6194 35.979 77.5244 35.979H76.9931C76.8979 35.979 76.8159 35.9445 76.7469 35.8752C76.6776 35.8062 76.6431 35.7242 76.6431 35.629V28.0747H74.2201C74.1251 28.0747 74.0431 28.0402 73.9739 27.971C73.9046 27.902 73.8701 27.82 73.8701 27.7247V27.2582C73.8701 27.1632 73.9046 27.0812 73.9739 27.012C74.0429 26.943 74.1249 26.9082 74.2201 26.9082H80.2974C80.3924 26.9082 80.4744 26.943 80.5436 27.012Z" fill="white"/>
<path d="M83.2906 34.8122H87.6443C87.7393 34.8122 87.8213 34.847 87.8906 34.916C87.9596 34.9852 87.9943 35.0672 87.9943 35.1622V35.6287C87.9943 35.724 87.9598 35.806 87.8906 35.875C87.8213 35.9442 87.7393 35.9787 87.6443 35.9787H82.4096C82.3143 35.9787 82.2323 35.9442 82.1633 35.875C82.0941 35.806 82.0596 35.724 82.0596 35.6287V27.2582C82.0596 27.1632 82.0941 27.0812 82.1633 27.012C82.2323 26.943 82.3143 26.9082 82.4096 26.9082H87.5406C87.6356 26.9082 87.7176 26.943 87.7868 27.012C87.8558 27.0812 87.8906 27.1632 87.8906 27.2582V27.7247C87.8906 27.82 87.8561 27.902 87.7868 27.971C87.7176 28.0402 87.6356 28.0747 87.5406 28.0747H83.2906V30.8087H87.2556C87.3506 30.8087 87.4326 30.8435 87.5018 30.9125C87.5708 30.9817 87.6056 31.0637 87.6056 31.1587V31.6252C87.6056 31.7205 87.5711 31.8025 87.5018 31.8715C87.4326 31.9407 87.3506 31.9752 87.2556 31.9752H83.2906V34.8122Z" fill="white"/>
<path d="M28.7077 22.0722V27.937H8.88366V8.17174H28.7077V14.0362H36.7437V1.03099V0.135742H0.847656V35.973H36.7437V22.0722H28.7077Z" fill="white"/>
</svg>
