<svg width="19" height="17" viewBox="0 0 19 17" fill="none" xmlns="http://www.w3.org/2000/svg">
<path fill-rule="evenodd" clip-rule="evenodd" d="M0 15.01V0.469L0.938 0L6.567 1.407L11.708 0.122C12.028 0.042 12.363 0.048 12.68 0.138L18.689 1.864L18.763 16.417L17.825 16.886L12.196 15.479L7.055 16.764C6.736 16.844 6.401 16.839 6.084 16.748L0 15.01ZM13.134 13.779L16.878 14.715L16.82 3.279L13.134 2.221V13.779ZM11.258 13.779V2.169L7.506 3.107V14.717L11.258 13.779ZM1.877 2.169L5.629 3.107V14.667L1.877 13.594V2.168V2.169Z" fill="black"/>
</svg>
