<svg width="199" height="179" viewBox="0 0 199 179" fill="none" xmlns="http://www.w3.org/2000/svg">
<circle cx="107.5" cy="107.5" r="107.5" fill="url(#paint0_radial_92_9512)"/>
<path fill-rule="evenodd" clip-rule="evenodd" d="M176.578 24.969C191.662 37.8749 203.138 54.8824 209.283 74.266C209.756 78.2257 210 82.2554 210 86.3416C210 89.0118 209.895 91.6579 209.691 94.2761C208.03 98.2679 204.933 101.891 202.155 105.14C199.661 108.057 197.424 110.673 196.714 112.986C197.636 129.63 187.626 139.832 184.14 135.682C182.518 133.75 181.663 127.002 180.65 119.012L180.65 119.012C179.486 109.833 178.114 99.0145 175.134 91.975C170.427 80.8454 164.23 83.5626 159.892 85.4648L159.892 85.4649C159.092 85.8154 158.356 86.1382 157.704 86.3416C153.527 87.6354 131.2 73.2554 147.247 54.4006L160.498 39.2928C162.656 31.3418 169.551 27.159 176.578 24.969ZM13.0715 53.7433C25.4397 31.9559 45.1791 14.909 68.8945 6.00098C73.4938 7.32269 77.5727 10.0733 80.3814 15.4198C85.6705 25.4838 87.3398 24.0544 89.5232 22.1848C91.1635 20.7802 93.0939 19.1273 97.0672 21.9125C106.343 28.4049 116.539 23.522 116.539 23.522C116.539 23.522 133.224 32.1113 109.129 37.684C85.0195 43.2567 82.2342 49.7494 86.8719 51.6025C88.8544 52.3946 91.3434 50.1369 93.7612 47.9438C96.9996 45.0062 100.11 42.1846 101.705 46.9629C104.491 55.3221 100.786 64.2088 94.2955 65.7915C91.7657 66.4084 89.7987 65.3177 87.8462 64.2348C84.7893 62.5396 81.7676 60.8639 76.6766 65.7915C68.3337 73.8666 72.9717 89.6384 72.9717 89.6384C72.9717 89.6384 80.395 112.146 90.5903 112.011C100.786 111.889 114.7 142.932 90.5903 125.091C81.0515 118.028 73.2545 115.505 65.9344 113.138C54.7635 109.524 44.703 106.269 31.2572 87.7853C22.3487 75.5218 16.8285 67.3201 13.3855 61.8587C13.2699 61.4119 13.1597 60.9636 13.0577 60.5131C13.0267 60.3762 12.9978 60.2387 12.9689 60.1011C12.9317 59.9246 12.8946 59.748 12.8531 59.5726C12.8029 59.3618 12.7722 59.2264 12.7536 59.1438C12.7113 58.3688 12.425 57.7579 12 57.3052C12.336 56.1088 12.6933 54.9213 13.0715 53.7433ZM141.525 176.242C141.525 176.242 142.876 178.2 142.685 180.064L132.956 183C125.373 180.602 125.227 166.383 125.124 156.375C125.093 153.346 125.066 150.702 124.837 148.889C123.773 140.602 116.091 137.988 116.091 137.988C116.091 137.988 92.8808 89.8111 121.794 100.833C121.794 100.833 126.393 115.207 137.609 118.586C139.313 119.101 140.989 119.592 142.594 120.062L142.594 120.062C151.562 122.689 158.294 124.662 155.238 126.47C154.131 127.121 156.107 126.989 159.212 126.782C166.205 126.314 178.921 125.464 175.037 132.316C171.846 137.934 167.454 141.844 164.081 144.848C161.512 147.135 159.534 148.896 159.127 150.485C158.199 154.159 150.722 163.357 150.722 163.357L141.525 176.242Z" fill="url(#paint1_radial_92_9512)"/>
<path fill-rule="evenodd" clip-rule="evenodd" d="M176.578 24.969C191.662 37.8749 203.138 54.8824 209.283 74.266C209.756 78.2257 210 82.2554 210 86.3416C210 89.0118 209.895 91.6579 209.691 94.2761C208.03 98.2679 204.933 101.891 202.155 105.14C199.661 108.057 197.424 110.673 196.714 112.986C197.636 129.63 187.626 139.832 184.14 135.682C182.518 133.75 181.663 127.002 180.65 119.012L180.65 119.012C179.486 109.833 178.114 99.0145 175.134 91.975C170.427 80.8454 164.23 83.5626 159.892 85.4648L159.892 85.4649C159.092 85.8154 158.356 86.1382 157.704 86.3416C153.527 87.6354 131.2 73.2554 147.247 54.4006L160.498 39.2928C162.656 31.3418 169.551 27.159 176.578 24.969ZM13.0715 53.7433C25.4397 31.9559 45.1791 14.909 68.8945 6.00098C73.4938 7.32269 77.5727 10.0733 80.3814 15.4198C85.6705 25.4838 87.3398 24.0544 89.5232 22.1848C91.1635 20.7802 93.0939 19.1273 97.0672 21.9125C106.343 28.4049 116.539 23.522 116.539 23.522C116.539 23.522 133.224 32.1113 109.129 37.684C85.0195 43.2567 82.2342 49.7494 86.8719 51.6025C88.8544 52.3946 91.3434 50.1369 93.7612 47.9438C96.9996 45.0062 100.11 42.1846 101.705 46.9629C104.491 55.3221 100.786 64.2088 94.2955 65.7915C91.7657 66.4084 89.7987 65.3177 87.8462 64.2348C84.7893 62.5396 81.7676 60.8639 76.6766 65.7915C68.3337 73.8666 72.9717 89.6384 72.9717 89.6384C72.9717 89.6384 80.395 112.146 90.5903 112.011C100.786 111.889 114.7 142.932 90.5903 125.091C81.0515 118.028 73.2545 115.505 65.9344 113.138C54.7635 109.524 44.703 106.269 31.2572 87.7853C22.3487 75.5218 16.8285 67.3201 13.3855 61.8587C13.2699 61.4119 13.1597 60.9636 13.0577 60.5131C13.0267 60.3762 12.9978 60.2387 12.9689 60.1011C12.9317 59.9246 12.8946 59.748 12.8531 59.5726C12.8029 59.3618 12.7722 59.2264 12.7536 59.1438C12.7113 58.3688 12.425 57.7579 12 57.3052C12.336 56.1088 12.6933 54.9213 13.0715 53.7433ZM141.525 176.242C141.525 176.242 142.876 178.2 142.685 180.064L132.956 183C125.373 180.602 125.227 166.383 125.124 156.375C125.093 153.346 125.066 150.702 124.837 148.889C123.773 140.602 116.091 137.988 116.091 137.988C116.091 137.988 92.8808 89.8111 121.794 100.833C121.794 100.833 126.393 115.207 137.609 118.586C139.313 119.101 140.989 119.592 142.594 120.062L142.594 120.062C151.562 122.689 158.294 124.662 155.238 126.47C154.131 127.121 156.107 126.989 159.212 126.782C166.205 126.314 178.921 125.464 175.037 132.316C171.846 137.934 167.454 141.844 164.081 144.848C161.512 147.135 159.534 148.896 159.127 150.485C158.199 154.159 150.722 163.357 150.722 163.357L141.525 176.242Z" fill="url(#paint2_linear_92_9512)"/>
<defs>
<radialGradient id="paint0_radial_92_9512" cx="0" cy="0" r="1" gradientUnits="userSpaceOnUse" gradientTransform="translate(80.2624 98.5089) rotate(90) scale(103.195)">
<stop stop-color="#E93235"/>
<stop offset="0.834189" stop-color="#C90408"/>
<stop offset="1" stop-color="#AF0003"/>
</radialGradient>
<radialGradient id="paint1_radial_92_9512" cx="0" cy="0" r="1" gradientUnits="userSpaceOnUse" gradientTransform="translate(111 94.5005) rotate(90) scale(88.4995 98.9998)">
<stop stop-color="#FF5356"/>
<stop offset="1" stop-color="#E52124"/>
</radialGradient>
<linearGradient id="paint2_linear_92_9512" x1="181.169" y1="11.394" x2="-36.2918" y2="74.879" gradientUnits="userSpaceOnUse">
<stop stop-color="#D7080B"/>
<stop offset="1" stop-color="#FFB9BA"/>
</linearGradient>
</defs>
</svg>
