<svg width="68" height="64" viewBox="0 0 68 64" fill="none" xmlns="http://www.w3.org/2000/svg">
<path fill-rule="evenodd" clip-rule="evenodd" d="M68 12.9472V2.96377C68 1.32708 66.7058 0 65.1096 0C37.0826 1.52902 39.0289 34.2938 39.0289 34.2938V60.4695C39.0289 62.4195 40.5708 64 42.4725 64H64.5565C66.4581 64 68 62.4195 68 60.4695V37.8242C68 35.8743 66.4581 34.2938 64.5565 34.2938H55.7959C53.5145 19.3755 61.5767 16.7919 65.7271 15.842C67.0535 15.5385 68 14.3408 68 12.9472Z" fill="#E5E5E5"/>
<path fill-rule="evenodd" clip-rule="evenodd" d="M26.7271 15.842C28.0535 15.5385 29 14.3408 29 12.9472V2.96377C29 1.32708 27.7058 0 26.1096 0C-1.91739 1.52902 0.0289467 34.2938 0.0289467 34.2938V60.4695C0.0289467 62.4195 1.57085 64 3.47247 64H25.5565C27.4581 64 29 62.4195 29 60.4695V37.8242C29 35.8743 27.4581 34.2938 25.5565 34.2938H16.7959C14.5145 19.3755 22.5767 16.7919 26.7271 15.842" fill="#E5E5E5"/>
</svg>
