<svg width="9" height="12" viewBox="0 0 9 12" fill="none" xmlns="http://www.w3.org/2000/svg">
<mask id="mask0_194_9053" style="mask-type:luminance" maskUnits="userSpaceOnUse" x="0" y="0" width="9" height="12">
<path fill-rule="evenodd" clip-rule="evenodd" d="M0 0H8.512V11.4718H0V0Z" fill="white"/>
</mask>
<g mask="url(#mask0_194_9053)">
<path fill-rule="evenodd" clip-rule="evenodd" d="M3.312 1.568V5.184H4.528C5.189 5.184 5.701 5.029 6.064 4.72C6.427 4.411 6.608 3.936 6.608 3.296C6.608 2.688 6.442 2.248 6.112 1.976C5.781 1.704 5.28 1.568 4.608 1.568H3.312ZM1.408 5.184V0H4.608C5.195 0 5.728 0.067 6.208 0.2C6.688 0.333 7.098 0.536 7.44 0.808C7.781 1.08 8.045 1.422 8.232 1.832C8.419 2.242 8.512 2.725 8.512 3.28C8.512 3.856 8.413 4.346 8.216 4.752C8.018 5.157 7.744 5.488 7.392 5.744C7.04 6 6.619 6.189 6.128 6.312C5.637 6.435 5.098 6.496 4.512 6.496H3.312V7.632H6.736V8.944H3.312V11.472H1.408V8.944H0V7.632H1.408V6.496H0V5.184H1.408Z" fill="black"/>
</g>
</svg>
