<svg width="17" height="17" viewBox="0 0 17 17" fill="none" xmlns="http://www.w3.org/2000/svg">
<path fill-rule="evenodd" clip-rule="evenodd" d="M14.7428 7.52439C14.7428 3.37414 11.4478 0 7.37141 0C3.29503 0 0 3.37414 0 7.52439C0 11.6746 3.29503 15.0488 7.37141 15.0488C11.4478 15.0488 14.7428 11.6746 14.7428 7.52439ZM2 7.52439C2 4.46823 4.41036 2 7.37141 2C10.3325 2 12.7428 4.46823 12.7428 7.52439C12.7428 10.5805 10.3325 13.0488 7.37141 13.0488C4.41036 13.0488 2 10.5805 2 7.52439Z" fill="white"/>
<path d="M12.51 10.9952L16.7151 15.3013L15.2842 16.6987L11.0791 12.3926L12.51 10.9952Z" fill="white"/>
</svg>
