<svg width="28" height="28" viewBox="0 0 28 28" fill="none" xmlns="http://www.w3.org/2000/svg">
<path fill-rule="evenodd" clip-rule="evenodd" d="M9.44762 19.4057C9.50853 19.4509 9.62402 19.5144 9.73658 19.5311C9.81917 19.5432 9.87797 19.5326 9.97033 19.4407L10.9751 18.44C11.3562 18.0604 11.9725 18.0604 12.3537 18.44C12.6353 18.7205 12.8459 18.7056 12.9152 18.7005C13.161 18.6831 13.3769 18.5162 13.4616 18.4096C13.5609 18.2664 13.5808 18.135 13.5305 17.9595C13.4802 17.7842 13.3804 17.6472 13.359 17.6192C13.0108 17.2332 13.0461 16.6634 13.4153 16.2957L13.7025 16.0097C14.0836 15.6301 14.6999 15.6301 15.081 16.0098C15.3103 16.2382 15.6552 16.5055 15.9959 16.4812C16.2845 16.4607 16.5204 16.2498 16.6196 16.1223C16.7362 15.9552 16.7716 15.7922 16.7343 15.5953C16.7021 15.4252 16.626 15.2936 16.6069 15.2626C16.5725 15.2173 16.5602 15.1925 16.5333 15.1388C16.5102 15.093 16.4615 15.04 16.3997 14.973C16.2375 14.7969 15.9355 14.469 15.9392 13.953C15.943 13.4176 16.2799 13.0138 16.573 12.7218L17.4346 11.8639C17.7915 11.5085 18.3601 11.4829 18.7476 11.8045C19.1005 12.0975 20.1201 12.2942 20.8511 12.2942C23.7159 12.2942 26.0466 9.97476 26.0466 7.12379C26.0466 4.27287 23.7159 1.95349 20.8511 1.95349C17.9862 1.95349 15.6555 4.27287 15.6555 7.12379C15.6555 8.38008 16.2181 9.31166 16.2238 9.32073C16.4663 9.70717 16.4089 10.2101 16.0857 10.532L8.62156 17.9657C8.55851 18.0285 8.46525 18.1793 8.46521 18.3035C8.46521 18.3341 8.46521 18.4273 8.62156 18.583L9.44762 19.4057ZM9.78069 21.4881C9.18284 21.4882 8.59918 21.251 8.15941 20.8757C8.14042 20.8594 8.12202 20.8425 8.10432 20.8248L7.24307 19.9672C6.63862 19.3652 6.51172 18.7302 6.51172 18.3035C6.51176 17.3815 7.07151 16.7524 7.24307 16.5816L14.2133 9.63977C13.9738 9.06009 13.702 8.17137 13.702 7.12379C13.702 3.19571 16.9091 0 20.8511 0C24.793 0 28.0001 3.19571 28.0001 7.12379C28.0001 11.0519 24.793 14.2477 20.8511 14.2477C20.6715 14.2477 19.3683 14.2312 18.2866 13.7723L18.0968 13.9614C18.1463 14.0304 18.1962 14.1079 18.2437 14.1947C18.6492 14.806 19.0576 16.075 18.1998 17.271C18.1953 17.2772 18.1908 17.2833 18.1863 17.2894C18.0006 17.5359 17.304 18.3466 16.1344 18.4297C15.9489 18.4429 15.7331 18.4377 15.4955 18.3958C15.4551 18.7747 15.3198 19.1706 15.0418 19.5583C15.0373 19.5644 15.0329 19.5705 15.0283 19.5766C14.6699 20.0526 13.9629 20.5845 13.0538 20.6491C12.7092 20.6736 12.2554 20.6351 11.7739 20.4015L11.3488 20.8248C10.8799 21.2918 10.3244 21.4881 9.78069 21.4881V21.4881Z" fill="white"/>
<path fill-rule="evenodd" clip-rule="evenodd" d="M20.8505 5.95593C20.2019 5.95593 19.6742 6.4797 19.6742 7.12353C19.6742 7.76733 20.2019 8.29113 20.8505 8.29113C21.4992 8.29113 22.0269 7.76733 22.0269 7.12353C22.0269 6.4797 21.4992 5.95593 20.8505 5.95593M20.8505 10.2446C19.1247 10.2446 17.7207 8.84448 17.7207 7.12353C17.7207 5.40255 19.1247 4.00244 20.8505 4.00244C22.5764 4.00244 23.9804 5.40255 23.9804 7.12353C23.9804 8.84448 22.5764 10.2446 20.8505 10.2446" fill="white"/>
<path fill-rule="evenodd" clip-rule="evenodd" d="M14.0132 28C10.8535 28 8.5705 28 6.73074 27.7526C4.66321 27.4747 3.2644 26.874 2.19521 25.8048C1.12607 24.7357 0.525332 23.3369 0.247351 21.2693C0 19.4295 0 17.1465 0 13.9869C0 10.8272 0 8.54433 0.247351 6.70453C0.525332 4.63696 1.12611 3.23814 2.19521 2.16904C3.906 0.458249 6.28617 0.0869683 10.0799 0.000272403C10.6198 -0.0123471 11.0664 0.415077 11.0787 0.954396C11.091 1.49372 10.6638 1.94091 10.1245 1.95325C6.33637 2.03979 4.68407 2.44284 3.57656 3.55035C1.95349 5.17339 1.95349 8.11878 1.95349 13.9869C1.95349 19.855 1.95349 22.8004 3.57656 24.4235C5.1996 26.0465 8.14507 26.0465 14.0132 26.0465C19.8812 26.0465 22.8266 26.0465 24.4497 24.4235C25.5571 23.316 25.9601 21.6637 26.0467 17.8755C26.0589 17.3439 26.4938 16.9211 27.0228 16.9211C27.0304 16.9211 27.038 16.9212 27.0456 16.9213C27.5849 16.9337 28.012 17.3809 27.9997 17.9202C27.913 21.7139 27.5416 24.094 25.8311 25.8048C24.7618 26.874 23.363 27.4747 21.2954 27.7526C19.4556 28 17.1728 28 14.0132 28" fill="#9BD9FC"/>
</svg>
