<svg width="30" height="33" viewBox="0 0 30 33" fill="none" xmlns="http://www.w3.org/2000/svg">
<path fill-rule="evenodd" clip-rule="evenodd" d="M13.1675 30.2083C14.3045 30.8614 15.7079 30.8619 16.8302 30.2097L25.8894 24.9443C27.014 24.2757 27.7123 23.0525 27.7123 21.7502V11.2498C27.7123 9.92777 27.0309 8.73435 25.8894 8.05574L16.8326 2.79168C15.6956 2.13872 14.2923 2.13807 13.1698 2.79035L4.1141 8.05376C2.98739 8.72187 2.28775 9.94614 2.28775 11.2498V21.7502C2.28775 23.067 2.98611 24.2908 4.11031 24.9441L13.1675 30.2083ZM15.0057 33C13.9788 33 12.9503 32.7356 12.0304 32.2065C12.0288 32.2056 12.0274 32.2048 12.0259 32.2038L2.96634 26.9383C1.13664 25.875 0 23.887 0 21.7502V11.2498C0 9.1319 1.13372 7.1456 2.95884 6.06608C2.96135 6.06465 2.96387 6.06318 2.96634 6.06171L12.0259 0.796131C13.851 -0.264463 16.1286 -0.26543 17.9697 0.793552C17.9712 0.794427 17.9727 0.795256 17.9742 0.796131L27.0337 6.06171C27.0362 6.06318 27.0387 6.06465 27.0412 6.06613C27.9394 6.59746 28.6874 7.35478 29.2044 8.2564C29.7249 9.16423 30 10.1994 30 11.2498V21.7502C30 23.8681 28.8663 25.8544 27.0412 26.9339L27.0337 26.9383L17.9742 32.2038C17.061 32.7346 16.0341 33 15.0057 33V33Z" fill="#9BD9FC"/>
<path fill-rule="evenodd" clip-rule="evenodd" d="M15 8.43508C13.5857 8.43508 12.4351 9.58571 12.4351 11C12.4351 12.4143 13.5857 13.5649 15 13.5649C16.4143 13.5649 17.5649 12.4143 17.5649 11C17.5649 9.58571 16.4143 8.43508 15 8.43508M15 16C12.243 16 10 13.757 10 11C10 8.24295 12.243 6 15 6C17.757 6 20 8.24295 20 11C20 13.757 17.757 16 15 16" fill="white"/>
<path fill-rule="evenodd" clip-rule="evenodd" d="M20.8158 24C20.1617 24 19.6316 23.5062 19.6316 22.8971C19.6316 21.9544 19.1296 21.0542 18.2182 20.3622C17.2361 19.6166 15.9156 19.2059 14.5 19.2059C13.0844 19.2059 11.7639 19.6166 10.7818 20.3622C9.87043 21.0542 9.36842 21.9544 9.36842 22.8971C9.36842 23.5062 8.83827 24 8.18421 24C7.53019 24 7 23.5062 7 22.8971C7 21.2788 7.81161 19.7714 9.28533 18.6525C10.6889 17.5869 12.5408 17 14.5 17C16.4593 17 18.3112 17.5869 19.7147 18.6525C21.1884 19.7714 22 21.2788 22 22.8971C22 23.5062 21.4698 24 20.8158 24" fill="white"/>
</svg>
