<svg width="32" height="32" viewBox="0 0 32 32" fill="none" xmlns="http://www.w3.org/2000/svg">
<path fill-rule="evenodd" clip-rule="evenodd" d="M27.4802 10V16.5164H25V23H32V16.5164H29.5803V10H27.4802ZM27.1 21.0549H29.9V18.4615H27.1V21.0549Z" fill="#9BD9FC"/>
<path fill-rule="evenodd" clip-rule="evenodd" d="M8.05504 0L0 5.95004V9.35244H7.3912V32H16.2159V9.35244H32V5.74444L15.3926 0H8.05504ZM9.3706 7.37308H14.2365V1.9794H9.3706V7.37308ZM16.2159 2.3792L30.0206 7.15428V7.37304H16.2159V2.3792ZM1.9794 6.94868L7.3912 2.95112V7.37304H1.9794V6.94868ZM10.6143 9.35244H14.2365V13.3472L10.6143 9.35244ZM9.3706 10.9276L13.8901 15.912L9.3706 20.8963V10.9276ZM9.71692 23.4612L14.2366 18.4767V28.4456L9.71692 23.4612ZM9.37068 26.0261L12.9927 30.0206H9.37068V26.0261Z" fill="white"/>
</svg>
