<svg width="34" height="34" viewBox="0 0 34 34" fill="none" xmlns="http://www.w3.org/2000/svg">
<path fill-rule="evenodd" clip-rule="evenodd" d="M13.0156 3.42755L4.49274 10.0772C3.36268 10.9573 2.37209 12.9757 2.37209 14.3974V26.1304C2.37209 29.1601 4.82669 31.6249 7.84375 31.6249H26.1563C27.6118 31.6249 28.9845 31.0521 30.0216 30.012C31.0574 28.9731 31.6279 27.6002 31.6279 26.1463V14.619C31.6279 13.0974 30.5351 11 29.2893 10.1306L19.5138 3.27274C17.7168 2.01321 14.7408 2.08399 13.0156 3.42755ZM26.1563 34H7.84375C3.51867 34 0 30.4697 0 26.1304V14.3974C0 12.2495 1.3334 9.5287 3.03562 8.2031L11.5585 1.55339C11.5587 1.5532 11.559 1.55296 11.5593 1.55277C12.7902 0.594223 14.4324 0.0436709 16.1835 0.00253388C17.9315 -0.0390307 19.5972 0.431955 20.8746 1.32728L30.648 8.18372C32.5266 9.49469 34 12.3222 34 14.619V26.1463C34 28.2339 33.1833 30.2027 31.7003 31.69C30.215 33.1797 28.2461 34 26.1563 34V34Z" fill="white"/>
<path fill-rule="evenodd" clip-rule="evenodd" d="M25.9998 16.1458C25.9997 16.1296 25.9993 16.1133 25.9985 16.0971C25.998 16.0871 25.997 16.0772 25.9963 16.0674C25.9956 16.0585 25.995 16.0497 25.9941 16.0408C25.993 16.029 25.9913 16.0173 25.9897 16.0056C25.9888 15.9988 25.988 15.992 25.987 15.9852C25.985 15.9726 25.9827 15.9601 25.9803 15.9476C25.9792 15.9417 25.9782 15.9359 25.977 15.9301C25.9744 15.9174 25.9714 15.9049 25.9683 15.8924C25.9669 15.8866 25.9656 15.8808 25.9641 15.875C25.9609 15.8629 25.9575 15.851 25.9539 15.839C25.952 15.8328 25.9503 15.8266 25.9483 15.8204C25.9448 15.8092 25.9409 15.7981 25.937 15.7872C25.9345 15.7801 25.9321 15.7731 25.9295 15.7661C25.9258 15.7562 25.9218 15.7464 25.9178 15.7367C25.9146 15.7286 25.9113 15.7205 25.9078 15.7125C25.9041 15.704 25.9001 15.6956 25.8963 15.6871C25.892 15.678 25.8878 15.669 25.8833 15.66C25.8797 15.6528 25.8759 15.6456 25.8721 15.6384C25.8669 15.6286 25.8617 15.6187 25.8562 15.609C25.8527 15.6027 25.849 15.5966 25.8453 15.5904C25.8392 15.5801 25.8332 15.5698 25.8267 15.5596C25.8231 15.554 25.8194 15.5485 25.8157 15.543C25.8089 15.5326 25.8021 15.5222 25.7949 15.512C25.791 15.5065 25.7869 15.5011 25.7829 15.4957C25.7756 15.4858 25.7684 15.4759 25.7608 15.4662C25.7561 15.4602 25.751 15.4542 25.7462 15.4482C25.739 15.4395 25.732 15.4307 25.7246 15.4221C25.7177 15.4141 25.7105 15.4065 25.7034 15.3987C25.6975 15.3923 25.6919 15.3858 25.6858 15.3795C25.6589 15.3512 25.6305 15.3242 25.6007 15.2985C25.5941 15.2928 25.5872 15.2875 25.5805 15.282C25.5723 15.2752 25.5642 15.2683 25.5558 15.2618C25.5468 15.2548 25.5377 15.2481 25.5286 15.2414C25.5222 15.2367 25.5158 15.2319 25.5093 15.2273C25.4991 15.2201 25.4887 15.2132 25.4784 15.2064C25.4726 15.2026 25.467 15.1986 25.4612 15.195C25.4504 15.1881 25.4394 15.1815 25.4285 15.175C25.4227 15.1716 25.417 15.1681 25.4112 15.1648C25.4004 15.1586 25.3895 15.1527 25.3785 15.1469C25.3721 15.1435 25.3657 15.14 25.3592 15.1367C25.3489 15.1314 25.3384 15.1264 25.3279 15.1214C25.3205 15.1179 25.3131 15.1143 25.3056 15.111C25.296 15.1067 25.2863 15.1026 25.2766 15.0985C25.2679 15.0948 25.2592 15.0912 25.2503 15.0876C25.2418 15.0843 25.2331 15.0811 25.2245 15.078C25.2144 15.0743 25.2043 15.0705 25.194 15.0671C25.1864 15.0645 25.1788 15.0621 25.1711 15.0597C25.1598 15.0561 25.1484 15.0525 25.1369 15.0492C25.1301 15.0473 25.1233 15.0455 25.1165 15.0437C25.1042 15.0404 25.0919 15.0371 25.0794 15.0342C25.0729 15.0327 25.0665 15.0313 25.06 15.03C25.0473 15.0271 25.0345 15.0244 25.0216 15.022C25.0149 15.0207 25.0082 15.0197 25.0015 15.0186C24.9888 15.0164 24.9762 15.0142 24.9634 15.0124C24.9558 15.0114 24.9481 15.0106 24.9404 15.0096C24.9286 15.0082 24.9168 15.0067 24.9049 15.0056C24.8947 15.0047 24.8845 15.0041 24.8744 15.0034C24.8648 15.0027 24.8554 15.0019 24.8457 15.0014C24.8258 15.0005 24.8058 15 24.7857 15H21.5476C20.877 15 20.3333 15.5166 20.3333 16.1538C20.3333 16.7911 20.877 17.3077 21.5476 17.3077H21.8542L18.1745 20.8042L16.4056 18.283C16.2038 17.9954 15.8769 17.8089 15.5149 17.7748C15.1529 17.7411 14.7938 17.8627 14.5367 18.1072L9.35569 23.0302C8.88144 23.4808 8.88144 24.2114 9.35569 24.662C9.59277 24.8873 9.90353 25 10.2143 25C10.525 25 10.8358 24.8873 11.0729 24.662L15.2066 20.7342L16.9754 23.2554C17.1772 23.543 17.5041 23.7295 17.8661 23.7636C18.2283 23.7973 18.5871 23.6757 18.8444 23.4312L23.5714 18.9395V19.2308C23.5714 19.868 24.1151 20.3846 24.7857 20.3846C25.4563 20.3846 26 19.868 26 19.2308V16.1538C26 16.1512 25.9998 16.1485 25.9998 16.1458" fill="#9BD9FC"/>
</svg>
