<svg width="34" height="34" viewBox="0 0 34 34" fill="none" xmlns="http://www.w3.org/2000/svg">
<path fill-rule="evenodd" clip-rule="evenodd" d="M33.8335 16.594C33.6149 16.2256 33.2166 16 32.7855 16C30.0874 16 27.5423 17.26 25.9856 19.36L24.8928 20.8H20.6112C21.3823 19.7944 21.8571 18.556 21.8571 17.2C21.8571 16.5376 21.3131 16 20.6428 16H12.6286C8.93113 16 5.46317 17.908 3.3394 21.1276L0.18229 26.1688C-0.171064 26.7316 0.00500578 27.4708 0.5745 27.82C0.773641 27.9424 0.994639 28 1.21321 28C1.61999 28 2.01706 27.7984 2.24655 27.4312L5.38788 22.4152C7.04779 19.9012 9.75441 18.4 12.6286 18.4H19.2209C18.7194 19.7968 17.3679 20.8 15.7857 20.8H13.3572C12.6857 20.8 12.1429 21.3364 12.1429 22C12.1429 22.6636 12.6857 23.2 13.3572 23.2H15.7857C16.0626 23.2 16.3273 23.1544 16.5944 23.1184C16.7219 23.164 16.8555 23.2 17 23.2H25.4999C25.8812 23.2 26.2418 23.0212 26.4713 22.72L27.9369 20.7892C28.5769 19.9252 29.4536 19.2628 30.4493 18.856L28.4372 22.3912C26.9777 25.0684 24.0148 26.8 20.8857 26.8C14.926 26.8 9.1497 28.5292 4.18332 31.8016C3.62597 32.1688 3.4754 32.914 3.84697 33.466C4.08132 33.8128 4.46503 34 4.85846 34C5.08917 34 5.32352 33.934 5.52995 33.7984C10.0968 30.79 15.4069 29.2 20.8857 29.2C24.8964 29.2 28.6995 26.9728 30.5646 23.548L33.8432 17.788C34.0557 17.4172 34.052 16.9624 33.8335 16.594" fill="#9BD9FC"/>
<path fill-rule="evenodd" clip-rule="evenodd" d="M23.4374 15C22.7807 15 22.2499 14.44 22.2499 13.7501V8.75026C22.2499 8.30278 22.4732 7.90905 22.8116 7.6878L17.5 2.89675L12.1896 7.6878C12.5257 7.90905 12.7501 8.30278 12.7501 8.75026V13.7501C12.7501 14.44 12.2181 15 11.5626 15C10.9071 15 10.3751 14.44 10.3751 13.7501V10.0002H9.18765C8.69129 10.0002 8.24717 9.67397 8.0738 9.18399C7.90161 8.69401 8.03699 8.14154 8.4146 7.80155L16.727 0.301862C17.1723 -0.100621 17.8278 -0.100621 18.2731 0.301862L26.5842 7.80155C26.963 8.14154 27.0984 8.69401 26.9262 9.18399C26.754 9.67397 26.3099 10.0002 25.8124 10.0002H24.6249V13.7501C24.6249 14.44 24.0941 15 23.4374 15" fill="white"/>
<path fill-rule="evenodd" clip-rule="evenodd" d="M17.5 15C16.8445 15 16.3125 14.4401 16.3125 13.7501V11.2502C16.3125 10.5602 16.8445 10.0002 17.5 10.0002C18.1555 10.0002 18.6875 10.5602 18.6875 11.2502V13.7501C18.6875 14.4401 18.1555 15 17.5 15" fill="white"/>
</svg>
