<svg width="20" height="20" viewBox="0 0 20 20" fill="none" xmlns="http://www.w3.org/2000/svg">
<path fill-rule="evenodd" clip-rule="evenodd" d="M3.63571 4.8H1V6.2H3.63571C3.95714 7.81 5.24286 9 6.78571 9C8.32857 9 9.61429 7.81 9.93571 6.2H19V4.8H9.93571C9.61429 3.19 8.32857 2 6.78571 2C5.24286 2 3.95714 3.19 3.63571 4.8ZM8.71429 5.5C8.71429 6.69 7.87857 7.6 6.78571 7.6C5.69286 7.6 4.85714 6.69 4.85714 5.5C4.85714 4.31 5.69286 3.4 6.78571 3.4C7.87857 3.4 8.71429 4.31 8.71429 5.5Z" fill="black"/>
<path fill-rule="evenodd" clip-rule="evenodd" d="M16.3643 15.2H19V13.8H16.3643C16.0429 12.19 14.7571 11 13.2143 11C11.6714 11 10.3857 12.19 10.0643 13.8H1V15.2H10.0643C10.3857 16.81 11.6714 18 13.2143 18C14.7571 18 16.0429 16.81 16.3643 15.2ZM11.2857 14.5C11.2857 13.31 12.1214 12.4 13.2143 12.4C14.3071 12.4 15.1429 13.31 15.1429 14.5C15.1429 15.69 14.3071 16.6 13.2143 16.6C12.1214 16.6 11.2857 15.69 11.2857 14.5Z" fill="black"/>
</svg>
