<svg width="22" height="18" viewBox="0 0 22 18" fill="none" xmlns="http://www.w3.org/2000/svg">
<mask id="mask0_282_4029" style="mask-type:luminance" maskUnits="userSpaceOnUse" x="0" y="0" width="22" height="18">
<path fill-rule="evenodd" clip-rule="evenodd" d="M0 0H22V18H0V0Z" fill="white"/>
</mask>
<g mask="url(#mask0_282_4029)">
<path fill-rule="evenodd" clip-rule="evenodd" d="M11.4855 2.1173C11.3201 1.98584 11.0791 2.10628 11.0791 2.32044V6.34076C11.0791 6.48291 10.9657 6.59776 10.8267 6.60159C7.14195 6.70276 4.00636 9.01183 2.68474 12.2586C2.48586 12.7472 2.32808 13.2569 2.21567 13.7837C2.09046 14.3703 2.02156 14.9779 2.01492 15.6005C2.01455 15.6336 2.01437 15.6669 2.01437 15.7001C2.0144 15.839 2.1999 15.8916 2.27471 15.7757C2.29103 15.7505 2.3075 15.7252 2.32406 15.7001C2.32409 15.7001 2.32406 15.7001 2.32406 15.7001C2.65341 15.2015 3.03226 14.7404 3.45461 14.3199C3.74161 14.0342 4.04866 13.7674 4.37399 13.5203C6.1024 12.2074 8.34606 11.4523 10.827 11.4043C10.966 11.4017 11.0791 11.5172 11.0791 11.6593V15.6795C11.0791 15.8937 11.3202 16.0142 11.4855 15.8827L19.8884 9.20308C20.018 9.10015 20.018 8.89994 19.8884 8.79689L11.4855 2.1173ZM0 15.7001C0 10.2022 3.92976 5.67606 9.06471 4.72385V2.32044C9.06471 0.393077 11.2337 -0.691122 12.7222 0.492177L21.1251 7.17179C22.2916 8.09905 22.2917 9.90091 21.1251 10.8283L12.7223 17.5078C11.2337 18.6911 9.06477 17.6069 9.06477 15.6795V13.6517C6.78957 14.0981 4.99819 15.2954 3.95605 16.9096C3.3562 17.8387 2.32227 18.0314 1.57086 17.8152C0.810511 17.5966 9.06477e-05 16.8549 0 15.7001V15.7001Z" fill="black"/>
</g>
</svg>
