<svg width="16" height="16" viewBox="0 0 16 16" fill="none" xmlns="http://www.w3.org/2000/svg">
<path fill-rule="evenodd" clip-rule="evenodd" d="M15.191 0C15.6378 0 16 0.362193 16 0.808988V7.99999C16 8.44679 15.6378 8.80898 15.191 8.80898C14.7443 8.80898 14.382 8.44679 14.382 7.99999V2.76206L2.76205 14.382H7.99999C8.44679 14.382 8.80898 14.7443 8.80898 15.191C8.80898 15.6378 8.44679 16 7.99999 16H0.808988C0.594426 16 0.388656 15.9148 0.236944 15.7631C0.0852314 15.6113 0 15.4055 0 15.191V7.99999C0 7.5532 0.362193 7.191 0.808988 7.191C1.25578 7.191 1.61798 7.5532 1.61798 7.99999V13.2379L13.2379 1.61798H7.99999C7.5532 1.61798 7.191 1.25578 7.191 0.808988C7.191 0.362193 7.5532 0 7.99999 0H15.191Z" fill="white"/>
</svg>
