<svg width="43" height="42" viewBox="0 0 43 42" fill="none" xmlns="http://www.w3.org/2000/svg">
<mask id="mask0_0_323" style="mask-type:luminance" maskUnits="userSpaceOnUse" x="25" y="24" width="18" height="18">
<path fill-rule="evenodd" clip-rule="evenodd" d="M25 24H43V42H25V24Z" fill="white"/>
</mask>
<g mask="url(#mask0_0_323)">
<path fill-rule="evenodd" clip-rule="evenodd" d="M42.7368 27.9835C42.7243 27.3755 42.2277 26.8912 41.6224 26.8912C41.6147 26.8912 41.6069 26.8913 41.5992 26.8914C40.9834 26.904 40.4945 27.4134 40.5071 28.0291L40.7135 38.1365L26.9036 24.3266C26.4682 23.8911 25.7621 23.8911 25.3266 24.3266C24.8911 24.7621 24.8911 25.468 25.3266 25.9035L39.1365 39.7134L29.0291 39.507C29.0213 39.5068 29.0136 39.5068 29.0059 39.5068C28.4007 39.5068 27.9039 39.9912 27.8914 40.5992C27.8789 41.2149 28.3678 41.7241 28.9836 41.7367L41.855 41.9996C41.8648 41.9999 41.8746 42 41.8845 42H41.8853C42.0109 42 42.1318 41.9792 42.2447 41.9407C42.2447 41.9407 42.2447 41.9406 42.2447 41.9406C42.2457 41.9403 42.2465 41.9401 42.2475 41.9397C42.2828 41.9275 42.3173 41.9137 42.3509 41.8982C42.3512 41.8982 42.3514 41.898 42.3517 41.8979C42.352 41.8978 42.3524 41.8976 42.3527 41.8974C42.4406 41.8568 42.5243 41.8041 42.6014 41.7394L42.6015 41.7393C42.602 41.7389 42.6025 41.7384 42.6032 41.7379C42.6345 41.7115 42.6644 41.6833 42.6927 41.6536C42.6927 41.6536 42.6927 41.6536 42.6927 41.6535C42.6934 41.6529 42.694 41.6522 42.6947 41.6515C42.6949 41.6512 42.6952 41.6509 42.6955 41.6506C42.6959 41.6503 42.6963 41.6499 42.6966 41.6495C42.6972 41.6488 42.6978 41.6482 42.6984 41.6475C42.6985 41.6475 42.6986 41.6474 42.6986 41.6473C42.7083 41.637 42.7178 41.6265 42.727 41.6159C42.7271 41.6158 42.7271 41.6157 42.7272 41.6156L42.7288 41.6139C42.7998 41.5318 42.8569 41.4418 42.9 41.3471V41.3469C42.9004 41.3462 42.9007 41.3455 42.9011 41.3447C42.9123 41.3198 42.9227 41.2945 42.9321 41.2687C42.9759 41.1493 42.9999 41.0204 43 40.8862V40.8849V40.8836C43 40.874 42.9999 40.8645 42.9996 40.855L42.7368 27.9835Z" fill="black"/>
</g>
<path fill-rule="evenodd" clip-rule="evenodd" d="M16.0964 24.3265L2.28651 38.1365L2.49278 28.029C2.50529 27.4134 2.01634 26.9039 1.40061 26.8914C0.783401 26.8799 0.275585 27.3678 0.263007 27.9835L0.000334529 40.8548C6.69058e-05 40.8645 0 40.874 0 40.8837V40.8849V40.8862C0 41.0168 0.0226811 41.1422 0.0642296 41.2589C0.0757374 41.2913 0.0887172 41.3229 0.103035 41.3539C0.10337 41.3547 0.103771 41.3554 0.104106 41.3561C0.104106 41.3562 0.104106 41.3562 0.104172 41.3562C0.142309 41.4382 0.191016 41.5165 0.250295 41.589C0.284216 41.6306 0.321014 41.6697 0.360489 41.706C0.360689 41.7062 0.360823 41.7063 0.361024 41.7064C0.361425 41.7068 0.361894 41.7072 0.362362 41.7076C0.362764 41.7081 0.363232 41.7085 0.3637 41.7089C0.363901 41.7091 0.364102 41.7093 0.364302 41.7094C0.374204 41.7185 0.384307 41.7273 0.394544 41.736C0.394878 41.7363 0.395213 41.7366 0.395614 41.7369C0.395815 41.7371 0.396016 41.7373 0.396283 41.7375C0.47657 41.8053 0.56415 41.86 0.65628 41.9016C0.656748 41.9017 0.657216 41.902 0.657751 41.9022C0.657885 41.9023 0.657952 41.9023 0.658086 41.9024C0.677623 41.9112 0.69756 41.9194 0.717766 41.9271C0.717967 41.9272 0.718301 41.9273 0.718569 41.9274C0.719238 41.9277 0.71984 41.9279 0.720442 41.9281C0.721245 41.9285 0.721914 41.9287 0.72265 41.929C0.722851 41.9291 0.723052 41.9291 0.723252 41.9293C0.845155 41.975 0.977093 42 1.11458 42H1.11545C1.12516 42 1.13479 41.9999 1.14442 41.9996L14.0166 41.7368C14.6322 41.7241 15.1212 41.2149 15.1086 40.5992C15.0961 39.9835 14.5875 39.4916 13.971 39.5071L3.86348 39.7134L17.6734 25.9035C18.1089 25.4681 18.1089 24.762 17.6734 24.3265C17.238 23.8912 16.532 23.8911 16.0964 24.3265" fill="black"/>
<mask id="mask1_0_323" style="mask-type:luminance" maskUnits="userSpaceOnUse" x="25" y="0" width="18" height="18">
<path fill-rule="evenodd" clip-rule="evenodd" d="M25 0H43V18H25V0Z" fill="white"/>
</mask>
<g mask="url(#mask1_0_323)">
<path fill-rule="evenodd" clip-rule="evenodd" d="M26.1151 18C26.4004 18 26.6859 17.8911 26.9036 17.6734L40.7135 3.86348L40.507 13.971C40.4945 14.5867 40.9834 15.0961 41.5992 15.1087C42.2159 15.1202 42.7242 14.6322 42.7368 14.0166L42.9996 1.14429C42.9999 1.13519 42.9999 1.12609 43 1.11693C43.0003 0.990942 42.9795 0.869575 42.941 0.75637C42.9282 0.718635 42.9134 0.68177 42.8968 0.645975C42.8966 0.645373 42.8963 0.644838 42.896 0.644236C42.8959 0.644035 42.8958 0.643834 42.8957 0.643634C42.8576 0.561741 42.8089 0.483461 42.7497 0.411002C42.7136 0.366711 42.6742 0.325363 42.6318 0.287093L42.6316 0.286892C42.6311 0.286424 42.6305 0.285888 42.63 0.28542C42.6296 0.285086 42.6293 0.284818 42.6289 0.284483C42.6286 0.284216 42.6283 0.283948 42.6281 0.283747C42.6275 0.283212 42.6269 0.282677 42.6263 0.282142L42.6262 0.282075C42.621 0.277391 42.6158 0.272842 42.6105 0.268359C42.6104 0.268225 42.6102 0.268091 42.6101 0.267958C42.6096 0.267556 42.6091 0.267088 42.6086 0.266686C42.5232 0.193625 42.4294 0.135618 42.3306 0.0925976C42.3305 0.0925976 42.3305 0.0925976 42.3304 0.0925307C42.3299 0.09233 42.3293 0.0920624 42.3288 0.0917948C42.3135 0.0851711 42.298 0.0788819 42.2824 0.0728604C42.2819 0.0727266 42.2815 0.0725928 42.281 0.0723921C42.2806 0.0721914 42.2801 0.0720575 42.2796 0.0718568C42.2788 0.0715223 42.2779 0.0711878 42.277 0.0708532L42.2768 0.0707863C42.1549 0.0249559 42.023 0 41.8854 0H41.8849C41.8729 0.000200717 41.8649 0.000133812 41.8551 0.000401435L28.9836 0.263074C28.3679 0.275652 27.8789 0.784939 27.8915 1.40067C27.9041 2.01641 28.415 2.50596 29.0291 2.49278L39.1365 2.28651L25.3266 16.0964C24.8911 16.5319 24.8911 17.2379 25.3266 17.6734C25.5444 17.8911 25.8297 18 26.1151 18" fill="black"/>
</g>
<path fill-rule="evenodd" clip-rule="evenodd" d="M3.86346 2.28651L13.971 2.49278C14.585 2.50475 15.0961 2.01641 15.1086 1.40067C15.1212 0.785006 14.6323 0.275585 14.0165 0.263074L1.14455 0.000334529C1.13492 6.69058e-05 1.12522 0 1.11552 0C1.11532 6.69058e-05 1.11498 0 1.11465 0C1.00111 0 0.891517 0.0169941 0.788081 0.0487074C0.747068 0.0612188 0.707125 0.0760719 0.66832 0.093066C0.554246 0.142844 0.446863 0.212694 0.351388 0.302481C0.351121 0.302749 0.350853 0.303016 0.350585 0.303284C0.350117 0.303752 0.349716 0.304087 0.349247 0.304488C0.348779 0.304957 0.348244 0.305492 0.347775 0.30596C0.347441 0.306228 0.347106 0.306562 0.346772 0.306897C0.34617 0.307432 0.345501 0.308101 0.344898 0.308636L0.34443 0.309105C0.338475 0.314792 0.332521 0.320679 0.326633 0.3265C0.326633 0.326567 0.326566 0.326567 0.326566 0.326634C0.326432 0.326701 0.326366 0.326768 0.326232 0.326902L0.324291 0.328909C0.323957 0.329243 0.323556 0.329578 0.323221 0.329912C0.32282 0.330381 0.322418 0.330782 0.32195 0.331184C0.321548 0.331652 0.320946 0.332254 0.320478 0.332723L0.319675 0.333525C0.215771 0.439237 0.137223 0.56047 0.0839665 0.689732C0.0818925 0.694884 0.0797515 0.700035 0.0777443 0.705254C0.0775436 0.705655 0.0773429 0.706191 0.0772091 0.706592C0.0274313 0.832843 6.69056e-05 0.970335 0 1.11378V1.11505V1.11632C0 1.12589 0.000133811 1.13546 0.000401434 1.14496L0.263073 14.0166C0.275651 14.6323 0.784937 15.1237 1.40067 15.1087C2.0164 15.0962 2.50535 14.5868 2.49277 13.9711L2.2865 3.86348L16.0964 17.6734C16.3141 17.8911 16.5995 18 16.8849 18C17.1703 18 17.4556 17.8911 17.6734 17.6734C18.1089 17.2379 18.1089 16.5319 17.6734 16.0965L3.86346 2.28651Z" fill="black"/>
</svg>
