<svg width="13" height="10" viewBox="0 0 13 10" fill="none" xmlns="http://www.w3.org/2000/svg">
<path d="M11.8917 0.0882829C11.8917 0.0882829 13.0943 -0.344574 12.9941 0.706651C12.9607 1.13951 12.66 2.65451 12.4262 4.2932L11.6245 9.14739C11.6245 9.14739 11.5577 9.85851 10.9563 9.98219C10.355 10.1059 9.45311 9.54934 9.28606 9.42565C9.15244 9.33291 6.78068 7.94157 5.94552 7.26137C5.71168 7.07585 5.44443 6.70482 5.97892 6.27197L9.48651 3.18014C9.88737 2.80911 10.2882 1.9434 8.61795 2.99463L3.9412 5.93188C3.9412 5.93188 3.40671 6.24105 2.40457 5.9628L0.233202 5.34442C0.233202 5.34442 -0.56853 4.88065 0.801095 4.41685C4.14165 2.96368 8.25052 1.4796 11.8917 0.0882829Z" fill="white"/>
</svg>
