<svg width="13" height="13" viewBox="0 0 13 13" fill="none" xmlns="http://www.w3.org/2000/svg">
<path fill-rule="evenodd" clip-rule="evenodd" d="M11.1059 1.88919C9.88389 0.671581 8.25865 0.000684373 6.52714 0C2.9594 0 0.0557011 2.8896 0.0542733 6.44139C0.0537974 7.57673 0.351869 8.68499 0.918275 9.66186L0 13L3.43136 12.1042C4.37677 12.6174 5.44122 12.8879 6.52455 12.8883H6.52721C10.0946 12.8883 12.9986 9.99834 13 6.44653C13.0007 4.72528 12.328 3.10679 11.1059 1.88919ZM6.52721 11.8003H6.52501C5.55966 11.7999 4.61279 11.5418 3.78679 11.054L3.59032 10.938L1.55413 11.4695L2.09764 9.49378L1.9697 9.29122C1.43117 8.43874 1.14672 7.45344 1.14714 6.44179C1.14832 3.48969 3.56178 1.08798 6.52935 1.08798C7.96631 1.08852 9.31712 1.64618 10.3329 2.65821C11.3486 3.67024 11.9077 5.01547 11.9071 6.44611C11.9059 9.39843 9.49249 11.8003 6.52721 11.8003ZM8.37307 7.26666C8.52133 7.32037 9.31648 7.70978 9.47823 7.79034C9.50978 7.80606 9.53929 7.82025 9.56664 7.83341C9.67946 7.88767 9.75566 7.92431 9.7882 7.97835C9.82863 8.04549 9.82863 8.36776 9.69386 8.74374C9.55906 9.11973 8.91291 9.46291 8.60219 9.50912C8.3235 9.55055 7.97093 9.56783 7.58347 9.44537C7.34859 9.37114 7.04733 9.27211 6.66146 9.10629C5.14542 8.4548 4.12082 6.99248 3.92701 6.71587C3.91341 6.69646 3.9039 6.68289 3.8986 6.67585L3.89725 6.67406C3.81151 6.56019 3.23821 5.79879 3.23821 5.0108C3.23821 4.26935 3.60415 3.88074 3.77259 3.70186C3.78413 3.68961 3.79474 3.67834 3.80424 3.66801C3.9525 3.50689 4.12771 3.4666 4.23554 3.4666C4.34334 3.4666 4.45127 3.4676 4.54551 3.47226C4.55711 3.47284 4.56919 3.47276 4.58167 3.47269C4.67593 3.47212 4.79348 3.47141 4.9094 3.74857C4.95415 3.85558 5.0197 4.01439 5.08879 4.18177C5.22777 4.51849 5.38105 4.88985 5.40806 4.94367C5.4485 5.02423 5.47545 5.11823 5.42153 5.22566C5.41348 5.2417 5.40604 5.25683 5.39892 5.2713C5.35838 5.35372 5.32861 5.41424 5.25982 5.4942C5.23286 5.52554 5.205 5.55931 5.17714 5.59307C5.12143 5.6606 5.06572 5.72812 5.01722 5.7762C4.93626 5.85643 4.85195 5.94355 4.94629 6.1047C5.04063 6.26582 5.36525 6.79296 5.84602 7.21973C6.36285 7.6785 6.81203 7.87242 7.03972 7.97071C7.08419 7.98991 7.12022 8.00546 7.14664 8.01862C7.30839 8.09921 7.40273 8.08576 7.49705 7.97833C7.59142 7.87092 7.90137 7.50836 8.00918 7.34724C8.11702 7.18609 8.22483 7.21294 8.37307 7.26666Z" fill="white"/>
</svg>
