<svg width="16" height="17" viewBox="0 0 16 17" fill="none" xmlns="http://www.w3.org/2000/svg">
<path fill-rule="evenodd" clip-rule="evenodd" d="M8 16.5C12.964 16.5 16 13.464 16 8.5C16 3.536 12.964 0.5 8 0.5C3.036 0.5 0 3.536 0 8.5C0 13.464 3.036 16.5 8 16.5M6.85 6.094L8 7.243L9.15 6.093C9.373 5.861 9.704 5.768 10.015 5.85C10.327 5.931 10.57 6.175 10.651 6.486C10.732 6.797 10.638 7.128 10.406 7.351L9.257 8.5L10.407 9.65C10.639 9.873 10.732 10.204 10.65 10.515C10.569 10.827 10.325 11.069 10.014 11.15C9.703 11.232 9.372 11.138 9.149 10.906L8 9.757L6.85 10.907C6.627 11.139 6.296 11.232 5.985 11.15C5.673 11.069 5.43 10.825 5.349 10.514C5.268 10.203 5.362 9.872 5.594 9.649L6.743 8.5L5.593 7.35C5.258 7.001 5.263 6.447 5.606 6.105C5.949 5.763 6.502 5.758 6.851 6.094" fill="white"/>
</svg>
