<svg width="62" height="19" viewBox="0 0 62 19" fill="none" xmlns="http://www.w3.org/2000/svg">
<path fill-rule="evenodd" clip-rule="evenodd" d="M42.7133 15.3021V13.1455C41.9133 13.7058 40.5466 14.1983 39.2966 14.1983C37.3966 14.1983 36.6799 13.2813 36.5633 11.4134H42.8299V10.0209C42.8299 6.13225 41.1466 4.67188 38.5633 4.67188C35.3966 4.67188 33.8966 7.13414 33.8966 10.5134C33.8966 14.4021 35.7799 16.287 39.0799 16.287C40.7299 16.287 41.9466 15.8285 42.7133 15.3021ZM58.93 16.287C60.1299 16.287 60.9799 16.0662 61.6133 15.5907V13.4341C60.9633 13.8926 60.18 14.1813 59.0799 14.1813C57.2299 14.1813 56.4633 12.7209 56.4633 10.4115C56.4633 7.9832 57.3966 6.74357 59.0966 6.74357C60.0966 6.74357 61.0799 7.10018 61.5966 7.4398V5.19829C61.0466 4.89263 60.0966 4.67188 58.7966 4.67188C55.4799 4.67188 53.7633 7.10018 53.7633 10.4964C53.7799 14.2153 55.4633 16.287 58.93 16.287ZM18.9299 9.29074V4.87565H21.5299V16.0662H18.9299V11.3964H15.4633V16.0662H12.8633V4.87565H15.4633V9.29074H18.9299ZM33.2299 13.9606H32.0966V4.87565H24.5299V5.82659C24.5299 8.56055 24.3633 12.0926 23.4466 13.9606H22.6133V18.6134H25.0133V16.0662H30.8299V18.6134H33.2299V13.9606ZM53.9466 16.0662H50.9966L47.1633 10.5643V16.0662H44.5633V4.87565H47.1633V10.0379L50.8299 4.87565H53.4466L49.7799 10.0379L53.9466 16.0662ZM38.4966 6.74357C39.7799 6.74357 40.1799 7.83037 40.1799 9.2398V9.46055H36.5633C36.6299 7.67754 37.2633 6.74357 38.4966 6.74357ZM25.8299 13.9606H29.4966V6.94735H26.7466V7.28697C26.7466 9.22282 26.5466 12.2794 25.8299 13.9606Z" fill="black"/>
<path d="M10.6966 16.0661H8.04661V2.70196H6.86328C4.69661 2.70196 3.56328 3.80573 3.56328 5.4529C3.56328 7.32083 4.34661 8.18687 5.96328 9.29064L7.29661 10.2076L3.46328 16.0661H0.613281L4.06328 10.8359C2.07995 9.39253 0.963281 7.98309 0.963281 5.60573C0.963281 2.63404 2.99661 0.613281 6.84661 0.613281H10.6799V16.0661H10.6966Z" fill="#FC3F1D"/>
</svg>
