<svg width="24" height="25" viewBox="0 0 24 25" fill="none" xmlns="http://www.w3.org/2000/svg">
<path fill-rule="evenodd" clip-rule="evenodd" d="M21.3707 20.263C19.5058 20.7526 11.9874 20.7526 11.9874 20.7526C11.9874 20.7526 4.48582 20.7526 2.62933 20.263C1.59608 19.9856 0.78964 19.1859 0.495625 18.1985C0 16.387 0 12.5763 0 12.5763C0 12.5763 0 8.79006 0.495625 6.99486C0.78964 5.98302 1.59608 5.19966 2.62933 4.93038C4.48582 4.43262 11.9874 4.43262 11.9874 4.43262C11.9874 4.43262 19.5058 4.43262 21.3707 4.93038C22.4207 5.19966 23.2104 5.98302 23.4876 6.99486C24 8.79006 24 12.5763 24 12.5763C24 12.5763 24 16.387 23.4876 18.1985C23.2104 19.1859 22.4207 19.9856 21.3707 20.263ZM9.51731 9.12466L15.7242 12.5927L9.51731 16.0607V9.12466Z" fill="white"/>
</svg>
